CommonSerif-Regular.ufo
<glyph name="parenleft" format="2">
  <advance width="298"/>
  <unicode hex="0028"/>
  <outline>
    <contour>
      <point x="44" y="252" type="curve" smooth="yes"/>
      <point x="44" y="95.8019"/>
      <point x="134.498" y="-98.8539"/>
      <point x="256" y="-204" type="curve"/>
      <point x="265.57" y="-202.086"/>
      <point x="273.859" y="-195.376"/>
      <point x="277" y="-187" type="curve"/>
      <point x="186.422" y="-82.6978"/>
      <point x="127" y="91.21"/>
      <point x="127" y="252" type="curve" smooth="yes"/>
      <point x="127" y="412.113"/>
      <point x="187.468" y="588.276"/>
      <point x="277" y="689" type="curve"/>
      <point x="273.798" y="699.673"/>
      <point x="266.347" y="706.059"/>
      <point x="256" y="707" type="curve"/>
      <point x="124.356" y="594.162"/>
      <point x="44" y="421.7"/>
    </contour>
  </outline>
</glyph>
<glyph name="B" format="2">
  <advance width="585"/>
  <unicode hex="0042"/>
  <anchor x="267" y="740" name="top"/>
  <anchor x="276" y="-60" name="b.minus-60"/>
  <outline>
    <contour>
      <point x="107" y="119.936" type="line" name=".sk2"/>
      <point x="107" y="44.9356"/>
      <point x="97.553" y="33.9836"/>
      <point x="19.5385" y="31.3891" type="curve"/>
      <point x="12.9152" y="25.3832"/>
      <point x="12.806" y="4.38344"/>
      <point x="19.3669" y="-1.61043" type="curve"/>
      <point x="86.3712" y="-0.958765"/>
      <point x="120.376" y="-0.135541"/>
      <point x="146.376" y="-0.270712" type="curve"/>
      <point x="170.36" y="0.0385"/>
      <point x="233.643" y="-2"/>
      <point x="297" y="-2" type="curve" smooth="yes"/>
      <point x="496" y="-2"/>
      <point x="549" y="98"/>
      <point x="549" y="184" type="curve" smooth="yes"/>
      <point x="549" y="280"/>
      <point x="482" y="335"/>
      <point x="395" y="360" type="curve"/>
      <point x="395" y="362" type="line"/>
      <point x="445" y="386.912"/>
      <point x="490" y="438.73"/>
      <point x="490" y="492.54" type="curve" smooth="yes"/>
      <point x="490" y="559.305"/>
      <point x="461" y="646"/>
      <point x="275" y="646" type="curve" smooth="yes"/>
      <point x="219.002" y="646"/>
      <point x="163.025" y="645"/>
      <point x="147" y="645" type="curve" name=".sk1"/>
      <point x="122" y="644.911"/>
      <point x="87" y="646"/>
      <point x="20" y="647" type="curve"/>
      <point x="14" y="641"/>
      <point x="14" y="620"/>
      <point x="20" y="614" type="curve"/>
      <point x="98" y="611"/>
      <point x="107" y="600"/>
      <point x="107" y="525" type="curve"/>
    </contour>
    <contour>
      <point x="193" y="332" type="line"/>
      <point x="262" y="332" type="line" smooth="yes"/>
      <point x="399" y="332"/>
      <point x="456" y="255"/>
      <point x="456" y="165" type="curve" smooth="yes"/>
      <point x="456" y="92"/>
      <point x="428" y="31"/>
      <point x="276" y="31" type="curve" smooth="yes"/>
      <point x="206" y="31"/>
      <point x="193" y="57"/>
      <point x="193" y="118" type="curve" smooth="yes"/>
    </contour>
    <contour>
      <point x="193" y="550" type="line" smooth="yes"/>
      <point x="193" y="603"/>
      <point x="193" y="613"/>
      <point x="280" y="613" type="curve" smooth="yes"/>
      <point x="336" y="613"/>
      <point x="409" y="583"/>
      <point x="409" y="481" type="curve" smooth="yes"/>
      <point x="409" y="396"/>
      <point x="350" y="366"/>
      <point x="267" y="366" type="curve" smooth="yes"/>
      <point x="193" y="366" type="line"/>
    </contour>
  </outline>
</glyph>
<glyph name="D" format="2">
  <advance width="703"/>
  <unicode hex="0044"/>
  <anchor x="302" y="740" name="top"/>
  <anchor x="332" y="-60" name="b.minus-60"/>
  <outline>
    <contour>
      <point x="333" y="-2" type="curve" smooth="yes"/>
      <point x="474" y="-2"/>
      <point x="660" y="62"/>
      <point x="660" y="308" type="curve" smooth="yes"/>
      <point x="660" y="494"/>
      <point x="507" y="647"/>
      <point x="315" y="647" type="curve" smooth="yes"/>
      <point x="245.656" y="647"/>
      <point x="176.353" y="645"/>
      <point x="147" y="645" type="curve" name=".sk1"/>
      <point x="122" y="644.856"/>
      <point x="87" y="646"/>
      <point x="20" y="647" type="curve"/>
      <point x="14" y="641"/>
      <point x="14" y="620"/>
      <point x="20" y="614" type="curve"/>
      <point x="98" y="611"/>
      <point x="107" y="600"/>
      <point x="107" y="525" type="curve"/>
      <point x="107" y="120.002" type="line" name=".sk2"/>
      <point x="107" y="45.0017"/>
      <point x="97.5435" y="34.0507"/>
      <point x="19.5287" y="31.4648" type="curve"/>
      <point x="12.9047" y="25.4596"/>
      <point x="12.7932" y="4.4599"/>
      <point x="19.3535" y="-1.53469" type="curve"/>
      <point x="86.3579" y="-0.890419"/>
      <point x="120.363" y="-0.0709463"/>
      <point x="146.362" y="-0.208986" type="curve"/>
      <point x="182.35" y="0"/>
      <point x="257.648" y="-2"/>
    </contour>
    <contour>
      <point x="193" y="84" type="curve" smooth="yes"/>
      <point x="193" y="564" type="line" smooth="yes"/>
      <point x="193" y="599"/>
      <point x="228" y="613"/>
      <point x="277" y="613" type="curve" smooth="yes"/>
      <point x="493" y="613"/>
      <point x="564" y="438"/>
      <point x="564" y="284" type="curve" smooth="yes"/>
      <point x="564" y="82"/>
      <point x="443" y="32"/>
      <point x="302" y="32" type="curve" smooth="yes"/>
      <point x="204" y="32"/>
      <point x="193" y="52"/>
    </contour>
  </outline>
</glyph>
<glyph name="G" format="2">
  <advance width="684"/>
  <unicode hex="0047"/>
  <anchor x="362" y="740" name="top"/>
  <anchor x="362" y="-60" name="b.minus-60"/>
  <outline>
    <contour>
      <point x="376" y="658" type="curve" smooth="yes"/>
      <point x="209" y="658"/>
      <point x="36" y="527"/>
      <point x="36" y="307" type="curve" smooth="yes"/>
      <point x="36" y="127"/>
      <point x="160" y="-10"/>
      <point x="351" y="-10" type="curve" smooth="yes"/>
      <point x="469" y="-10"/>
      <point x="562" y="15"/>
      <point x="630" y="73" type="curve"/>
      <point x="619" y="82"/>
      <point x="614" y="90"/>
      <point x="614" y="101" type="curve" smooth="yes"/>
      <point x="614" y="217" type="line" smooth="yes"/>
      <point x="614" y="252"/>
      <point x="631" y="262"/>
      <point x="660" y="265" type="curve"/>
      <point x="666" y="271"/>
      <point x="666" y="295"/>
      <point x="660" y="301" type="curve"/>
      <point x="636" y="300"/>
      <point x="611" y="299"/>
      <point x="571" y="299" type="curve" smooth="yes"/>
      <point x="538" y="299"/>
      <point x="491" y="300"/>
      <point x="447" y="301" type="curve"/>
      <point x="441" y="295"/>
      <point x="441" y="271"/>
      <point x="447" y="265" type="curve"/>
      <point x="502" y="261"/>
      <point x="529" y="257"/>
      <point x="529" y="217" type="curve" smooth="yes"/>
      <point x="529" y="64" type="line"/>
      <point x="495" y="32"/>
      <point x="428" y="26"/>
      <point x="374" y="26" type="curve" smooth="yes"/>
      <point x="216" y="26"/>
      <point x="132" y="195"/>
      <point x="132" y="327" type="curve" smooth="yes"/>
      <point x="132" y="502"/>
      <point x="246" y="622"/>
      <point x="362" y="622" type="curve" smooth="yes"/>
      <point x="507" y="622"/>
      <point x="548" y="539"/>
      <point x="574" y="453" type="curve"/>
      <point x="585" y="452"/>
      <point x="596" y="454"/>
      <point x="607" y="459" type="curve"/>
      <point x="605" y="501"/>
      <point x="600" y="541"/>
      <point x="584" y="613" type="curve"/>
      <point x="524" y="623"/>
      <point x="487" y="658"/>
    </contour>
  </outline>
</glyph>
<glyph name="J" format="2">
  <advance width="291"/>
  <unicode hex="004A"/>
  <anchor x="152" y="740" name="top"/>
  <outline>
    <contour>
      <point x="196" y="523" type="line" smooth="yes"/>
      <point x="196" y="606"/>
      <point x="212" y="611"/>
      <point x="272" y="614" type="curve"/>
      <point x="278" y="620"/>
      <point x="278" y="641"/>
      <point x="272" y="647" type="curve"/>
      <point x="234" y="646"/>
      <point x="191" y="645"/>
      <point x="152" y="645" type="curve" smooth="yes"/>
      <point x="116" y="645"/>
      <point x="63" y="646"/>
      <point x="13" y="647" type="curve"/>
      <point x="7" y="641"/>
      <point x="7" y="620"/>
      <point x="13" y="614" type="curve"/>
      <point x="93" y="611"/>
      <point x="110" y="606"/>
      <point x="110" y="523" type="curve" smooth="yes"/>
      <point x="110" y="81" type="line" smooth="yes"/>
      <point x="110" y="-99"/>
      <point x="58" y="-127"/>
      <point x="25" y="-127" type="curve" smooth="yes"/>
      <point x="6" y="-127"/>
      <point x="-8" y="-115"/>
      <point x="-15" y="-100" type="curve"/>
      <point x="-21" y="-88"/>
      <point x="-30" y="-75"/>
      <point x="-55" y="-75" type="curve" smooth="yes"/>
      <point x="-69" y="-75"/>
      <point x="-99" y="-96"/>
      <point x="-99" y="-118" type="curve" smooth="yes"/>
      <point x="-99" y="-154"/>
      <point x="-46" y="-172"/>
      <point x="-24" y="-172" type="curve" smooth="yes"/>
      <point x="21" y="-172"/>
      <point x="52" y="-164"/>
      <point x="93" y="-129" type="curve" smooth="yes"/>
      <point x="137" y="-92"/>
      <point x="196" y="-40"/>
      <point x="196" y="103" type="curve" smooth="yes"/>
    </contour>
  </outline>
</glyph>
<glyph name="O" format="2">
  <advance width="700"/>
  <unicode hex="004F"/>
  <anchor x="343" y="740" name="top"/>
  <anchor x="383" y="10" name="b.ogonek"/>
  <anchor x="343" y="-60" name="b.minus-60"/>
  <anchor x="526" y="561" name="t.horn"/>
  <outline>
    <contour>
      <point x="664" y="329" type="curve" smooth="yes"/>
      <point x="664" y="536"/>
      <point x="521" y="658"/>
      <point x="345.348" y="658" type="curve" smooth="yes"/>
      <point x="148" y="658"/>
      <point x="36" y="504"/>
      <point x="36" y="319.995" type="curve" smooth="yes"/>
      <point x="36" y="113"/>
      <point x="178.773" y="-10"/>
      <point x="353.543" y="-10" type="curve" smooth="yes"/>
      <point x="547.186" y="-10"/>
      <point x="664" y="141"/>
    </contour>
    <contour>
      <point x="338.065" y="622" type="curve" smooth="yes"/>
      <point x="461" y="622"/>
      <point x="568" y="512"/>
      <point x="568" y="311.105" type="curve" smooth="yes"/>
      <point x="568" y="131"/>
      <point x="482.197" y="26"/>
      <point x="365.567" y="26" type="curve" smooth="yes"/>
      <point x="246.737" y="26"/>
      <point x="132" y="135"/>
      <point x="132" y="327" type="curve" smooth="yes"/>
      <point x="132" y="537"/>
      <point x="230" y="622"/>
    </contour>
  </outline>
</glyph>
<glyph name="P" format="2">
  <advance width="545"/>
  <unicode hex="0050"/>
  <anchor x="252" y="740" name="top"/>
  <anchor x="252" y="-60" name="b.minus-60"/>
  <outline>
    <contour>
      <point x="107" y="120.001" type="line" name=".sk2"/>
      <point x="107" y="45.0007"/>
      <point x="97.7145" y="34.031"/>
      <point x="19.7049" y="31.2901" type="curve"/>
      <point x="13.0929" y="25.2717"/>
      <point x="13.0232" y="4.27178"/>
      <point x="19.5953" y="-1.70975" type="curve"/>
      <point x="86.5983" y="-0.932255"/>
      <point x="120.601" y="-0.0451682"/>
      <point x="146.601" y="-0.13151" type="curve"/>
      <point x="166.126" y="0"/>
      <point x="227.818" y="-0.6611"/>
      <point x="293.64" y="-2" type="curve"/>
      <point x="299.56" y="4"/>
      <point x="299.56" y="25"/>
      <point x="293.64" y="31" type="curve"/>
      <point x="206.465" y="35.5309"/>
      <point x="193" y="47.7059"/>
      <point x="193" y="122" type="curve" smooth="yes"/>
      <point x="193" y="553.799" type="line" smooth="yes"/>
      <point x="193" y="595.327"/>
      <point x="224.166" y="619"/>
      <point x="278.84" y="619" type="curve" smooth="yes"/>
      <point x="370.146" y="619"/>
      <point x="415" y="569.096"/>
      <point x="415" y="467.51" type="curve" smooth="yes"/>
      <point x="415" y="363.686"/>
      <point x="368.068" y="315"/>
      <point x="267.987" y="315" type="curve" smooth="yes"/>
      <point x="231.113" y="315"/>
      <point x="208.136" y="316.481"/>
      <point x="180.87" y="320.615" type="curve"/>
      <point x="180.87" y="307.967"/>
      <point x="184.786" y="297.416"/>
      <point x="192.178" y="290.147" type="curve"/>
      <point x="221.331" y="284.07"/>
      <point x="241.849" y="282"/>
      <point x="272.92" y="282" type="curve" smooth="yes"/>
      <point x="416.672" y="282"/>
      <point x="511" y="362.655"/>
      <point x="511" y="485.57" type="curve" smooth="yes"/>
      <point x="511" y="585.253"/>
      <point x="420.661" y="652"/>
      <point x="285.747" y="652" type="curve" smooth="yes"/>
      <point x="226.564" y="652"/>
      <point x="167.29" y="645.069"/>
      <point x="147" y="645.069" type="curve" name=".sk1"/>
      <point x="122.007" y="644.492"/>
      <point x="87" y="646.069"/>
      <point x="20" y="647.069" type="curve"/>
      <point x="14" y="641.069"/>
      <point x="14" y="620.069"/>
      <point x="20" y="614.069" type="curve"/>
      <point x="98" y="611.069"/>
      <point x="107" y="600.069"/>
      <point x="107" y="525.069" type="curve"/>
    </contour>
  </outline>
</glyph>
<glyph name="R" format="2">
  <advance width="591"/>
  <unicode hex="0052"/>
  <anchor x="267" y="740" name="top"/>
  <anchor x="275" y="-60" name="b.minus-60"/>
  <outline>
    <contour>
      <point x="107" y="120.001" type="line" name=".sk2"/>
      <point x="107" y="45.0007"/>
      <point x="97.698" y="34.0329"/>
      <point x="19.6879" y="31.3069" type="curve"/>
      <point x="13.0748" y="25.2897"/>
      <point x="13.001" y="4.28986"/>
      <point x="19.572" y="-1.69294" type="curve"/>
      <point x="86.5751" y="-0.928267"/>
      <point x="120.578" y="-0.047692"/>
      <point x="146.578" y="-0.139012" type="curve"/>
      <point x="164.711" y="0"/>
      <point x="222.305" y="-0.6841"/>
      <point x="280" y="-2" type="curve"/>
      <point x="286" y="4"/>
      <point x="286" y="25"/>
      <point x="280" y="31" type="curve"/>
      <point x="210" y="34"/>
      <point x="193" y="39"/>
      <point x="193" y="122" type="curve" smooth="yes"/>
      <point x="193" y="554" type="line" smooth="yes"/>
      <point x="193" y="583"/>
      <point x="205" y="618"/>
      <point x="276" y="618" type="curve" smooth="yes"/>
      <point x="337" y="618"/>
      <point x="409" y="596"/>
      <point x="409" y="478" type="curve" smooth="yes"/>
      <point x="409" y="353"/>
      <point x="338" y="325"/>
      <point x="241" y="325" type="curve" smooth="yes"/>
      <point x="169.507" y="325" type="line"/>
      <point x="169.507" y="290.382" type="line"/>
      <point x="279.009" y="290.382"/>
      <point x="294.374" y="278.671"/>
      <point x="310" y="253" type="curve" smooth="yes"/>
      <point x="417" y="79" type="line" smooth="yes"/>
      <point x="446" y="32"/>
      <point x="489" y="-10"/>
      <point x="549" y="-10" type="curve" smooth="yes"/>
      <point x="564" y="-10"/>
      <point x="581" y="-8"/>
      <point x="591" y="-3" type="curve"/>
      <point x="595" y="4"/>
      <point x="594" y="13"/>
      <point x="590" y="21" type="curve"/>
      <point x="545" y="21"/>
      <point x="520" y="55"/>
      <point x="494" y="98" type="curve" smooth="yes"/>
      <point x="368" y="308" type="line"/>
      <point x="411" y="322"/>
      <point x="501" y="374"/>
      <point x="501" y="479" type="curve" smooth="yes"/>
      <point x="501" y="615"/>
      <point x="391" y="652"/>
      <point x="275" y="652" type="curve" smooth="yes"/>
      <point x="218.93" y="652"/>
      <point x="163.376" y="645"/>
      <point x="147" y="645" type="curve" name=".sk1"/>
      <point x="122.008" y="644.377"/>
      <point x="87" y="646"/>
      <point x="20" y="647" type="curve"/>
      <point x="14" y="641"/>
      <point x="14" y="620"/>
      <point x="20" y="614" type="curve"/>
      <point x="98" y="611"/>
      <point x="107" y="600"/>
      <point x="107" y="525" type="curve"/>
    </contour>
  </outline>
</glyph>
<glyph name="b" format="2">
  <advance width="493"/>
  <unicode hex="0062"/>
  <anchor x="247" y="740" name="top"/>
  <anchor x="229" y="-60" name="b.minus-60"/>
  <outline>
    <contour>
      <point x="73" y="0" type="curve"/>
      <point x="78" y="-8"/>
      <point x="83" y="-12"/>
      <point x="95" y="-12" type="curve"/>
      <point x="110" y="0"/>
      <point x="123" y="13"/>
      <point x="134" y="27" type="curve"/>
      <point x="164" y="-3"/>
      <point x="193" y="-10"/>
      <point x="235" y="-10" type="curve" smooth="yes"/>
      <point x="337" y="-10"/>
      <point x="456" y="83"/>
      <point x="456" y="233.295" type="curve" smooth="yes"/>
      <point x="456" y="349.202"/>
      <point x="378.733" y="439"/>
      <point x="279" y="439" type="curve" smooth="yes"/>
      <point x="231.367" y="439"/>
      <point x="204.418" y="426.224"/>
      <point x="144" y="375" type="curve"/>
      <point x="144" y="336" type="line"/>
      <point x="195.757" y="383.875"/>
      <point x="217.441" y="395"/>
      <point x="259" y="395" type="curve" smooth="yes"/>
      <point x="320" y="395"/>
      <point x="370" y="321"/>
      <point x="370" y="224" type="curve" smooth="yes"/>
      <point x="370" y="110"/>
      <point x="324" y="24"/>
      <point x="229" y="24" type="curve" smooth="yes"/>
      <point x="198" y="24"/>
      <point x="177" y="46"/>
      <point x="157" y="71" type="curve"/>
      <point x="157" y="576" type="line" name=".sk1"/>
      <point x="157" y="627.125"/>
      <point x="158.065" y="657.732"/>
      <point x="161" y="691" type="curve"/>
      <point x="161" y="695.154"/>
      <point x="155.714" y="698"/>
      <point x="148" y="698" type="curve"/>
      <point x="115.618" y="685.278"/>
      <point x="54.9207" y="672.523"/>
      <point x="10" y="669" type="curve"/>
      <point x="8.3714" y="663.3"/>
      <point x="9.4091" y="648.773"/>
      <point x="12" y="641" type="curve"/>
      <point x="69" y="636"/>
      <point x="77" y="628"/>
      <point x="77" y="576" type="curve"/>
      <point x="77" y="71" type="line" smooth="yes"/>
      <point x="77" y="32"/>
      <point x="76" y="14"/>
    </contour>
  </outline>
</glyph>
<glyph name="o" format="2">
  <advance width="502"/>
  <unicode hex="006F"/>
  <anchor x="237" y="500" name="top"/>
  <anchor x="338" y="10" name="b.ogonek"/>
  <anchor x="250" y="-60" name="b.minus-60"/>
  <anchor x="321" y="396" name="t.horn"/>
  <outline>
    <contour>
      <point x="250" y="-10" type="curve" smooth="yes"/>
      <point x="380" y="-10"/>
      <point x="462" y="87"/>
      <point x="462" y="212.972" type="curve" smooth="yes"/>
      <point x="462" y="318"/>
      <point x="405" y="439"/>
      <point x="257.09" y="439" type="curve" smooth="yes"/>
      <point x="118" y="439"/>
      <point x="40" y="332"/>
      <point x="40" y="213.574" type="curve" smooth="yes"/>
      <point x="40" y="103"/>
      <point x="108" y="-10"/>
    </contour>
    <contour>
      <point x="260.935" y="25" type="curve" smooth="yes"/>
      <point x="160" y="25"/>
      <point x="126" y="150.668"/>
      <point x="126" y="230.555" type="curve" smooth="yes"/>
      <point x="126" y="314.235"/>
      <point x="163.305" y="403"/>
      <point x="245.785" y="403" type="curve" smooth="yes"/>
      <point x="323" y="403"/>
      <point x="376" y="325.206"/>
      <point x="376" y="181.586" type="curve" smooth="yes"/>
      <point x="376" y="55.9182"/>
      <point x="311" y="25"/>
    </contour>
  </outline>
</glyph>
<glyph name="r" format="2">
  <advance width="376"/>
  <unicode hex="0072"/>
  <anchor x="196" y="500" name="top"/>
  <anchor x="147" y="-60" name="b.minus-60"/>
  <outline>
    <contour>
      <point x="182" y="110" type="line"/>
      <point x="182" y="261" type="line" smooth="yes"/>
      <point x="182" y="309"/>
      <point x="226" y="377"/>
      <point x="252" y="377" type="curve" smooth="yes"/>
      <point x="283.147" y="377"/>
      <point x="281.238" y="341"/>
      <point x="314" y="341" type="curve" smooth="yes"/>
      <point x="342.343" y="341"/>
      <point x="361" y="360.848"/>
      <point x="361" y="388.132" type="curve" smooth="yes"/>
      <point x="361" y="419.395"/>
      <point x="336.493" y="439"/>
      <point x="305" y="439" type="curve" smooth="yes"/>
      <point x="254" y="439"/>
      <point x="206.268" y="382.659"/>
      <point x="183.268" y="343.659" type="curve"/>
      <point x="179" y="344.31" type="line"/>
      <point x="177.222" y="384.321"/>
      <point x="172.304" y="427.208"/>
      <point x="170" y="434" type="curve"/>
      <point x="168.27" y="439.1"/>
      <point x="166" y="442"/>
      <point x="158" y="442" type="curve"/>
      <point x="130" y="431"/>
      <point x="104" y="422"/>
      <point x="35" y="413" type="curve"/>
      <point x="33" y="407"/>
      <point x="35" y="391"/>
      <point x="37" y="385" type="curve"/>
      <point x="91" y="380"/>
      <point x="102" y="375"/>
      <point x="102" y="317" type="curve" smooth="yes"/>
      <point x="102" y="110" type="line"/>
    </contour>
    <contour>
      <point x="30" y="-2" type="curve"/>
      <point x="63" y="-1"/>
      <point x="107" y="0"/>
      <point x="147" y="0" type="curve"/>
      <point x="147" y="122" type="line"/>
      <point x="102" y="122" type="line"/>
      <point x="102" y="40"/>
      <point x="91" y="35"/>
      <point x="30" y="31" type="curve"/>
      <point x="24" y="25"/>
      <point x="24" y="4"/>
    </contour>
    <contour>
      <point x="137" y="0" type="line"/>
      <point x="177" y="0"/>
      <point x="221" y="-1"/>
      <point x="254" y="-2" type="curve"/>
      <point x="260" y="4"/>
      <point x="260" y="25"/>
      <point x="254" y="31" type="curve"/>
      <point x="193" y="35"/>
      <point x="182" y="40"/>
      <point x="182" y="122" type="curve"/>
      <point x="137" y="122" type="line"/>
    </contour>
  </outline>
</glyph>
<glyph name="Oslash" format="2">
  <advance width="701"/>
  <unicode hex="00D8"/>
  <anchor x="343" y="740" name="top"/>
  <anchor x="343" y="-60" name="b.minus-60"/>
  <outline>
    <contour>
      <point x="665" y="329" type="curve" smooth="yes"/>
      <point x="665" y="536"/>
      <point x="522" y="658"/>
      <point x="346.348" y="658" type="curve" smooth="yes"/>
      <point x="149" y="658"/>
      <point x="36" y="504"/>
      <point x="36" y="319.995" type="curve" smooth="yes"/>
      <point x="36" y="113"/>
      <point x="179" y="-10"/>
      <point x="354.048" y="-10" type="curve" smooth="yes"/>
      <point x="548" y="-10"/>
      <point x="665" y="141"/>
    </contour>
    <contour>
      <point x="339.065" y="622" type="curve" smooth="yes"/>
      <point x="462" y="622"/>
      <point x="569" y="512"/>
      <point x="569" y="311.105" type="curve" smooth="yes"/>
      <point x="569" y="131"/>
      <point x="483" y="26"/>
      <point x="366.103" y="26" type="curve" smooth="yes"/>
      <point x="247" y="26"/>
      <point x="132" y="135"/>
      <point x="132" y="327" type="curve" smooth="yes"/>
      <point x="132" y="537"/>
      <point x="231" y="622"/>
    </contour>
    <contour>
      <point x="165.551" y="135.35" type="line"/>
      <point x="193.551" y="94.3502" type="line"/>
      <point x="534.449" y="514.65" type="line"/>
      <point x="506.449" y="555.65" type="line"/>
    </contour>
    <contour>
      <point x="71" y="19" type="line"/>
      <point x="74" y="4"/>
      <point x="88" y="-13"/>
      <point x="107" y="-13" type="curve"/>
      <point x="168.459" y="62.6417" type="line"/>
      <point x="132.548" y="93.5683" type="line"/>
    </contour>
    <contour>
      <point x="531.606" y="585.306" type="line"/>
      <point x="566.584" y="554.324" type="line"/>
      <point x="626" y="628" type="line"/>
      <point x="624" y="643"/>
      <point x="609" y="658"/>
      <point x="590" y="658" type="curve"/>
    </contour>
  </outline>
</glyph>
<glyph name="Hbar" format="2">
  <advance width="726"/>
  <unicode hex="0126"/>
  <outline>
    <component base="H"/>
    <contour>
      <point x="220" y="507" type="line"/>
      <point x="220" y="546" type="line"/>
      <point x="47" y="546" type="line" smooth="yes"/>
      <point x="38" y="546"/>
      <point x="28" y="531"/>
      <point x="28" y="521" type="curve" smooth="yes"/>
      <point x="28" y="515"/>
      <point x="31" y="507"/>
      <point x="39" y="507" type="curve" smooth="yes"/>
    </contour>
    <contour>
      <point x="547.495" y="546" type="line"/>
      <point x="176.437" y="546" type="line"/>
      <point x="176.437" y="507" type="line"/>
      <point x="547.495" y="507" type="line"/>
    </contour>
    <contour>
      <point x="526" y="507" type="line"/>
      <point x="659" y="507" type="line" smooth="yes"/>
      <point x="671" y="507"/>
      <point x="680" y="522"/>
      <point x="680" y="533" type="curve" smooth="yes"/>
      <point x="680" y="538"/>
      <point x="677" y="546"/>
      <point x="668" y="546" type="curve" smooth="yes"/>
      <point x="526" y="546" type="line"/>
    </contour>
  </outline>
</glyph>
<glyph name="dotlessi" format="2">
  <advance width="272"/>
  <unicode hex="0131"/>
  <anchor x="124" y="500" name="top"/>
  <anchor x="151" y="-60" name="b.minus-60"/>
  <outline>
    <contour>
      <point x="30" y="-2" type="curve"/>
      <point x="63" y="-1"/>
      <point x="107" y="0"/>
      <point x="147" y="0" type="curve"/>
      <point x="147" y="122" type="line"/>
      <point x="102" y="122" type="line"/>
      <point x="102" y="40"/>
      <point x="91" y="35"/>
      <point x="30" y="31" type="curve"/>
      <point x="24" y="25"/>
      <point x="24" y="4"/>
    </contour>
    <contour>
      <point x="102" y="320" type="curve"/>
      <point x="182" y="320" type="line"/>
      <point x="182" y="371.125"/>
      <point x="183.065" y="401.732"/>
      <point x="186" y="435" type="curve"/>
      <point x="186" y="439.154"/>
      <point x="180.714" y="442"/>
      <point x="173" y="442" type="curve"/>
      <point x="140.618" y="429.278"/>
      <point x="79.9207" y="416.523"/>
      <point x="35" y="413" type="curve"/>
      <point x="33.3714" y="407.3"/>
      <point x="34.4091" y="392.773"/>
      <point x="37" y="385" type="curve"/>
      <point x="94" y="380"/>
      <point x="102" y="372"/>
    </contour>
    <contour>
      <point x="102" y="110" type="line"/>
      <point x="182" y="110" type="line"/>
      <point x="182" y="320" type="line" name=".sk1"/>
      <point x="182" y="371.125"/>
      <point x="183.065" y="401.732"/>
      <point x="186" y="435" type="curve"/>
      <point x="186" y="439.154"/>
      <point x="180.714" y="442"/>
      <point x="173" y="442" type="curve"/>
      <point x="140.618" y="429.278"/>
      <point x="79.9207" y="416.523"/>
      <point x="35" y="413" type="curve"/>
      <point x="33.3714" y="407.3"/>
      <point x="34.4091" y="392.773"/>
      <point x="37" y="385" type="curve"/>
      <point x="94" y="380"/>
      <point x="102" y="372"/>
      <point x="102" y="320" type="curve"/>
    </contour>
    <contour>
      <point x="137" y="0" type="line"/>
      <point x="177" y="0"/>
      <point x="221" y="-1"/>
      <point x="254" y="-2" type="curve"/>
      <point x="260" y="4"/>
      <point x="260" y="25"/>
      <point x="254" y="31" type="curve"/>
      <point x="193" y="35"/>
      <point x="182" y="40"/>
      <point x="182" y="122" type="curve"/>
      <point x="137" y="122" type="line"/>
    </contour>
  </outline>
</glyph>
<glyph name="Tbar" format="2">
  <advance width="597"/>
  <unicode hex="0166"/>
  <outline>
    <component base="T"/>
    <contour>
      <point x="322" y="321" type="line"/>
      <point x="322" y="360" type="line"/>
      <point x="149" y="360" type="line" smooth="yes"/>
      <point x="140" y="360"/>
      <point x="130" y="345"/>
      <point x="130" y="335" type="curve" smooth="yes"/>
      <point x="130" y="329"/>
      <point x="133" y="321"/>
      <point x="141" y="321" type="curve" smooth="yes"/>
    </contour>
    <contour>
      <point x="344" y="321" type="line"/>
      <point x="477" y="321" type="line" smooth="yes"/>
      <point x="489" y="321"/>
      <point x="498" y="336"/>
      <point x="498" y="347" type="curve" smooth="yes"/>
      <point x="498" y="352"/>
      <point x="495" y="360"/>
      <point x="486" y="360" type="curve" smooth="yes"/>
      <point x="344" y="360" type="line"/>
    </contour>
  </outline>
</glyph>
<glyph name="uni0191" format="2">
  <advance width="487"/>
  <unicode hex="0191"/>
  <outline>
    <contour>
      <point x="106" y="81" type="line" smooth="yes"/>
      <point x="106" y="34.1626"/>
      <point x="103.912" y="-127"/>
      <point x="22" y="-127" type="curve" smooth="yes"/>
      <point x="-10.5517" y="-127"/>
      <point x="-7.1345" y="-82"/>
      <point x="-52.3613" y="-82" type="curve" smooth="yes"/>
      <point x="-78.3796" y="-82"/>
      <point x="-96" y="-97.772"/>
      <point x="-96" y="-121.061" type="curve" smooth="yes"/>
      <point x="-96" y="-149.679"/>
      <point x="-67.9556" y="-172"/>
      <point x="-32" y="-172" type="curve" smooth="yes"/>
      <point x="126.03" y="-172"/>
      <point x="192" y="-13.325"/>
      <point x="192" y="119" type="curve" smooth="yes"/>
      <point x="192" y="571" type="line" smooth="yes"/>
      <point x="192" y="595"/>
      <point x="204" y="605"/>
      <point x="228" y="605" type="curve" smooth="yes"/>
      <point x="333" y="605" type="line" smooth="yes"/>
      <point x="408" y="605"/>
      <point x="426" y="565"/>
      <point x="448" y="496" type="curve"/>
      <point x="458" y="498"/>
      <point x="467" y="499"/>
      <point x="477" y="501" type="curve"/>
      <point x="472" y="542"/>
      <point x="457" y="638"/>
      <point x="455" y="646" type="curve"/>
      <point x="455" y="648"/>
      <point x="454" y="649"/>
      <point x="451" y="649" type="curve"/>
      <point x="431.144" y="645.39"/>
      <point x="425.66" y="645"/>
      <point x="404" y="645" type="curve" smooth="yes"/>
      <point x="146" y="645.065" type="line" name=".sk1"/>
      <point x="121" y="645.07"/>
      <point x="86" y="646.065"/>
      <point x="19" y="647.065" type="curve"/>
      <point x="13" y="641.065"/>
      <point x="13" y="620.065"/>
      <point x="19" y="614.065" type="curve"/>
      <point x="97" y="611.065"/>
      <point x="106" y="600.065"/>
      <point x="106" y="525.065" type="curve"/>
    </contour>
    <contour>
      <point x="177" y="323" type="line"/>
      <point x="285" y="323" type="line" smooth="yes"/>
      <point x="370" y="323"/>
      <point x="373" y="300"/>
      <point x="376" y="255" type="curve"/>
      <point x="382" y="249"/>
      <point x="403" y="249"/>
      <point x="409" y="255" type="curve"/>
      <point x="408" y="280"/>
      <point x="407" y="309"/>
      <point x="407" y="343" type="curve" smooth="yes"/>
      <point x="407" y="377"/>
      <point x="408" y="403"/>
      <point x="409" y="429" type="curve"/>
      <point x="403" y="435"/>
      <point x="382" y="435"/>
      <point x="376" y="429" type="curve"/>
      <point x="373" y="374"/>
      <point x="370" y="361"/>
      <point x="285" y="361" type="curve" smooth="yes"/>
      <point x="177" y="361" type="line"/>
    </contour>
  </outline>
</glyph>
<glyph name="uni0197" format="2">
  <advance width="299"/>
  <unicode hex="0197"/>
  <outline>
    <component base="I"/>
    <contour>
      <point x="210" y="321" type="line"/>
      <point x="210" y="360" type="line"/>
      <point x="37" y="360" type="line" smooth="yes"/>
      <point x="28" y="360"/>
      <point x="18" y="345"/>
      <point x="18" y="335" type="curve" smooth="yes"/>
      <point x="18" y="329"/>
      <point x="21" y="321"/>
      <point x="29" y="321" type="curve" smooth="yes"/>
    </contour>
    <contour>
      <point x="125" y="321" type="line"/>
      <point x="258" y="321" type="line" smooth="yes"/>
      <point x="270" y="321"/>
      <point x="279" y="336"/>
      <point x="279" y="347" type="curve" smooth="yes"/>
      <point x="279" y="352"/>
      <point x="276" y="360"/>
      <point x="267" y="360" type="curve" smooth="yes"/>
      <point x="125" y="360" type="line"/>
    </contour>
  </outline>
</glyph>
<glyph name="uni0198" format="2">
  <advance width="638"/>
  <unicode hex="0198"/>
  <outline>
    <contour>
      <point x="106" y="120" type="line" name=".sk1"/>
      <point x="106" y="45"/>
      <point x="97" y="34"/>
      <point x="19" y="31" type="curve"/>
      <point x="12.408" y="24.9597"/>
      <point x="12.408" y="3.95968"/>
      <point x="19" y="-2" type="curve"/>
      <point x="86" y="-1"/>
      <point x="120" y="0"/>
      <point x="146" y="0" type="curve"/>
      <point x="152" y="0" type="line" name=".sk2"/>
      <point x="178" y="0"/>
      <point x="213" y="-1"/>
      <point x="279" y="-2" type="curve"/>
      <point x="285" y="4"/>
      <point x="286" y="25"/>
      <point x="279" y="31" type="curve"/>
      <point x="201" y="34"/>
      <point x="192" y="45"/>
      <point x="192" y="120" type="curve"/>
      <point x="192" y="525" type="line" name=".sk4"/>
      <point x="192" y="600"/>
      <point x="202" y="611"/>
      <point x="280" y="614" type="curve"/>
      <point x="286" y="620"/>
      <point x="286" y="641"/>
      <point x="280" y="647" type="curve"/>
      <point x="217" y="646"/>
      <point x="182" y="645"/>
      <point x="152" y="645" type="curve"/>
      <point x="146" y="645" type="line" name=".sk3"/>
      <point x="121" y="645"/>
      <point x="86" y="646"/>
      <point x="19" y="647" type="curve"/>
      <point x="13" y="641"/>
      <point x="13" y="620"/>
      <point x="19" y="614" type="curve"/>
      <point x="97" y="611"/>
      <point x="106" y="600"/>
      <point x="106" y="525" type="curve"/>
    </contour>
    <contour>
      <point x="174.514" y="308.078" type="line"/>
      <point x="223.833" y="308.078"/>
      <point x="254.602" y="296.724"/>
      <point x="275" y="271" type="curve" smooth="yes"/>
      <point x="432" y="73" type="line" smooth="yes"/>
      <point x="452.381" y="47.2972"/>
      <point x="466" y="20"/>
      <point x="468" y="4" type="curve"/>
      <point x="468" y="1"/>
      <point x="469" y="-2"/>
      <point x="473" y="-2" type="curve"/>
      <point x="500.863" y="-0.6069"/>
      <point x="527.998" y="0"/>
      <point x="556" y="0" type="curve"/>
      <point x="577" y="-1"/>
      <point x="594" y="-1"/>
      <point x="628" y="-2" type="curve"/>
      <point x="633.554" y="3.55438"/>
      <point x="634.016" y="24.9843"/>
      <point x="628" y="31" type="curve"/>
      <point x="587.43" y="37.2415"/>
      <point x="567.378" y="40.479"/>
      <point x="540" y="73" type="curve" smooth="yes"/>
      <point x="359" y="288" type="line" smooth="yes"/>
      <point x="324.381" y="329.122"/>
      <point x="311.805" y="343.642"/>
      <point x="311.805" y="353.155" type="curve" smooth="yes"/>
      <point x="311.805" y="361.938"/>
      <point x="318.345" y="373.949"/>
      <point x="330.688" y="389.963" type="curve" smooth="yes"/>
      <point x="434" y="524" type="line" smooth="yes"/>
      <point x="475.283" y="577.56"/>
      <point x="516" y="621"/>
      <point x="546.157" y="621" type="curve" smooth="yes"/>
      <point x="593.437" y="621"/>
      <point x="579.324" y="542"/>
      <point x="625" y="542" type="curve" smooth="yes"/>
      <point x="645" y="542"/>
      <point x="665" y="559"/>
      <point x="665" y="581" type="curve" smooth="yes"/>
      <point x="665" y="617"/>
      <point x="634.01" y="658"/>
      <point x="567.01" y="658" type="curve" smooth="yes"/>
      <point x="509.928" y="658"/>
      <point x="477.367" y="638.728"/>
      <point x="377" y="514" type="curve" smooth="yes"/>
      <point x="274" y="386" type="line" smooth="yes"/>
      <point x="249.127" y="355.09"/>
      <point x="220.574" y="346.025"/>
      <point x="174.514" y="346.025" type="curve"/>
    </contour>
  </outline>
  <guideline angle="90" x="149" y="0"/>
  <guideline angle="90" x="106" y="0"/>
  <guideline angle="90" x="192" y="0"/>
</glyph>
<glyph name="uni019D" format="2">
  <advance width="695"/>
  <unicode hex="019D"/>
  <outline>
    <contour>
      <point x="102" y="0" type="line"/>
      <point x="102" y="-110.094"/>
      <point x="79.8916" y="-157"/>
      <point x="42" y="-157" type="curve" smooth="yes"/>
      <point x="10.5372" y="-157"/>
      <point x="21.85" y="-103"/>
      <point x="-12" y="-103" type="curve" smooth="yes"/>
      <point x="-20" y="-103"/>
      <point x="-44" y="-106"/>
      <point x="-44" y="-138" type="curve" smooth="yes"/>
      <point x="-44" y="-167.452"/>
      <point x="-12.4833" y="-187"/>
      <point x="35" y="-187" type="curve" smooth="yes"/>
      <point x="129.696" y="-187"/>
      <point x="151" y="-87.4702"/>
      <point x="151" y="0" type="curve"/>
    </contour>
    <contour>
      <point x="102" y="0" type="line"/>
      <point x="151" y="0" type="line"/>
      <point x="151" y="439" type="line" smooth="yes"/>
      <point x="151" y="473"/>
      <point x="151" y="488"/>
      <point x="159" y="488" type="curve" smooth="yes"/>
      <point x="165" y="488"/>
      <point x="176" y="477"/>
      <point x="193" y="455" type="curve" smooth="yes"/>
      <point x="542" y="14" type="line" smooth="yes"/>
      <point x="553.538" y="-0.578991"/>
      <point x="557.596" y="-3.77979"/>
      <point x="569" y="-10" type="curve"/>
      <point x="583" y="-10"/>
      <point x="603" y="-8"/>
      <point x="618" y="0" type="curve"/>
      <point x="611" y="24"/>
      <point x="605" y="57"/>
      <point x="605" y="103" type="curve" smooth="yes"/>
      <point x="605" y="512" type="line" smooth="yes"/>
      <point x="605" y="601"/>
      <point x="622" y="607"/>
      <point x="692" y="614" type="curve"/>
      <point x="698" y="620"/>
      <point x="698" y="641"/>
      <point x="692" y="647" type="curve"/>
      <point x="651" y="646"/>
      <point x="604" y="645"/>
      <point x="580" y="645" type="curve" smooth="yes"/>
      <point x="559" y="645"/>
      <point x="513" y="646"/>
      <point x="469" y="647" type="curve"/>
      <point x="463" y="641"/>
      <point x="463" y="620"/>
      <point x="469" y="614" type="curve"/>
      <point x="539" y="607"/>
      <point x="556" y="603"/>
      <point x="556" y="512" type="curve" smooth="yes"/>
      <point x="556" y="185" type="line" smooth="yes"/>
      <point x="556" y="166"/>
      <point x="556" y="155"/>
      <point x="549" y="155" type="curve" smooth="yes"/>
      <point x="545" y="155"/>
      <point x="530" y="173"/>
      <point x="501" y="210" type="curve" smooth="yes"/>
      <point x="158" y="645" type="line"/>
      <point x="23" y="647" type="line"/>
      <point x="17" y="641"/>
      <point x="17" y="620"/>
      <point x="23" y="614" type="curve"/>
      <point x="66" y="611"/>
      <point x="96" y="576"/>
      <point x="102" y="550" type="curve"/>
    </contour>
  </outline>
</glyph>
<glyph name="uni01A8" format="2">
  <advance width="371"/>
  <unicode hex="01A8"/>
  <outline>
    <contour>
      <point x="37" y="116" type="curve" smooth="yes"/>
      <point x="37" y="17"/>
      <point x="142" y="-10"/>
      <point x="189" y="-10" type="curve" smooth="yes"/>
      <point x="226.667" y="-10"/>
      <point x="264.011" y="2"/>
      <point x="289" y="2" type="curve" smooth="yes"/>
      <point x="299.702" y="2"/>
      <point x="310.475" y="2.3389"/>
      <point x="321" y="0" type="curve"/>
      <point x="325" y="47"/>
      <point x="328" y="93"/>
      <point x="328" y="140" type="curve"/>
      <point x="320.492" y="142.821"/>
      <point x="312.98" y="143.139"/>
      <point x="305" y="141" type="curve"/>
      <point x="298.712" y="71.829"/>
      <point x="266.379" y="18"/>
      <point x="191" y="18" type="curve" smooth="yes"/>
      <point x="149.734" y="18"/>
      <point x="104" y="48.7448"/>
      <point x="104" y="93" type="curve" smooth="yes"/>
      <point x="104" y="152.161"/>
      <point x="160.738" y="178.842"/>
      <point x="208" y="199" type="curve" smooth="yes"/>
      <point x="271.934" y="226.268"/>
      <point x="318" y="247.92"/>
      <point x="318" y="327" type="curve" smooth="yes"/>
      <point x="318" y="401.959"/>
      <point x="247.661" y="439"/>
      <point x="180" y="439" type="curve" smooth="yes"/>
      <point x="139.691" y="439"/>
      <point x="99.1263" y="432.686"/>
      <point x="63" y="414" type="curve"/>
      <point x="58" y="382"/>
      <point x="55" y="348"/>
      <point x="53" y="312" type="curve"/>
      <point x="59.8879" y="308.553"/>
      <point x="67.8879" y="307.553"/>
      <point x="77" y="311" type="curve"/>
      <point x="88.7393" y="357.957"/>
      <point x="126.871" y="409"/>
      <point x="180" y="409" type="curve" smooth="yes"/>
      <point x="226.852" y="409"/>
      <point x="257" y="389.818"/>
      <point x="257" y="342" type="curve" smooth="yes"/>
      <point x="257" y="302"/>
      <point x="237.983" y="282.046"/>
      <point x="184" y="262" type="curve" smooth="yes"/>
      <point x="115.155" y="236.435"/>
      <point x="37" y="201.278"/>
    </contour>
  </outline>
</glyph>
<glyph name="uni01AB" format="2">
  <advance width="316"/>
  <unicode hex="01AB"/>
  <outline>
    <component base="t"/>
    <contour>
      <point x="164" y="-145" type="curve" smooth="yes"/>
      <point x="193" y="-145"/>
      <point x="267" y="-100"/>
      <point x="267" y="-10" type="curve" smooth="yes"/>
      <point x="267" y="5.4"/>
      <point x="265.04" y="20.8"/>
      <point x="261.12" y="36.2" type="curve"/>
      <point x="234.705" y="30.0916" type="line"/>
      <point x="237.068" y="22.0066"/>
      <point x="239.076" y="9.05294"/>
      <point x="239.104" y="-0.314357" type="curve" smooth="yes"/>
      <point x="239.224" y="-39.8311"/>
      <point x="223.863" y="-65.3052"/>
      <point x="177" y="-72" type="curve" smooth="yes"/>
      <point x="144.327" y="-76.6675"/>
      <point x="128" y="-86.5599"/>
      <point x="128" y="-112.025" type="curve" smooth="yes"/>
      <point x="128" y="-132.025"/>
      <point x="142" y="-145"/>
    </contour>
  </outline>
</glyph>
<glyph name="uni0237" format="2">
  <advance width="261"/>
  <unicode hex="0237"/>
  <anchor x="122" y="500" name="top"/>
  <outline>
    <contour>
      <point x="-27" y="-142" type="curve" smooth="yes"/>
      <point x="-45.9475" y="-142"/>
      <point x="-59" y="-157.663"/>
      <point x="-59" y="-180" type="curve" smooth="yes"/>
      <point x="-59" y="-203.802"/>
      <point x="-34.3163" y="-223"/>
      <point x="-4" y="-223" type="curve" smooth="yes"/>
      <point x="180" y="-223"/>
      <point x="182" y="-10"/>
      <point x="182" y="130" type="curve"/>
      <point x="102" y="130" type="line"/>
      <point x="102" y="77"/>
      <point x="106" y="-28"/>
      <point x="106" y="-71" type="curve" smooth="yes"/>
      <point x="106" y="-135"/>
      <point x="96" y="-179"/>
      <point x="48" y="-179" type="curve" smooth="yes"/>
      <point x="8.40659" y="-179"/>
      <point x="9.54789" y="-142"/>
    </contour>
    <contour>
      <point x="102" y="317" type="curve" smooth="yes"/>
      <point x="102" y="122" type="line"/>
      <point x="182" y="122" type="line"/>
      <point x="182" y="321" type="line" smooth="yes"/>
      <point x="182" y="371"/>
      <point x="186" y="429"/>
      <point x="186" y="435" type="curve" smooth="yes"/>
      <point x="186" y="439"/>
      <point x="181" y="442"/>
      <point x="173" y="442" type="curve"/>
      <point x="145" y="431"/>
      <point x="104" y="422"/>
      <point x="35" y="413" type="curve"/>
      <point x="33" y="407"/>
      <point x="35" y="391"/>
      <point x="37" y="385" type="curve"/>
      <point x="91" y="380"/>
      <point x="102" y="374"/>
    </contour>
  </outline>
</glyph>
<glyph name="uni0243" format="2">
  <advance width="585"/>
  <unicode hex="0243"/>
  <outline>
    <component base="B"/>
    <contour>
      <point x="160" y="164" type="line"/>
      <point x="160" y="203" type="line"/>
      <point x="-13" y="203" type="line" smooth="yes"/>
      <point x="-22" y="203"/>
      <point x="-32" y="188"/>
      <point x="-32" y="178" type="curve" smooth="yes"/>
      <point x="-32" y="172"/>
      <point x="-29" y="164"/>
      <point x="-21" y="164" type="curve" smooth="yes"/>
    </contour>
    <contour>
      <point x="185" y="164" type="line"/>
      <point x="318" y="164" type="line" smooth="yes"/>
      <point x="330" y="164"/>
      <point x="339" y="179"/>
      <point x="339" y="190" type="curve" smooth="yes"/>
      <point x="339" y="195"/>
      <point x="336" y="203"/>
      <point x="327" y="203" type="curve" smooth="yes"/>
      <point x="185" y="203" type="line"/>
    </contour>
  </outline>
</glyph>
<glyph name="uni0249" format="2">
  <advance width="262"/>
  <unicode hex="0249"/>
  <outline>
    <contour>
      <point x="-26" y="-142" type="curve" smooth="yes"/>
      <point x="-44.9475" y="-142"/>
      <point x="-58" y="-157.663"/>
      <point x="-58" y="-180" type="curve" smooth="yes"/>
      <point x="-58" y="-203.802"/>
      <point x="-33.3163" y="-223"/>
      <point x="-3" y="-223" type="curve" smooth="yes"/>
      <point x="181" y="-223"/>
      <point x="183" y="-10"/>
      <point x="183" y="130" type="curve"/>
      <point x="103" y="130" type="line"/>
      <point x="103" y="77"/>
      <point x="107" y="-28"/>
      <point x="107" y="-71" type="curve" smooth="yes"/>
      <point x="107" y="-135"/>
      <point x="97" y="-179"/>
      <point x="49" y="-179" type="curve" smooth="yes"/>
      <point x="9.40659" y="-179"/>
      <point x="10.5479" y="-142"/>
    </contour>
    <contour>
      <point x="200" y="187" type="line"/>
      <point x="200" y="226" type="line"/>
      <point x="27" y="226" type="line" smooth="yes"/>
      <point x="18" y="226"/>
      <point x="8" y="211"/>
      <point x="8" y="201" type="curve" smooth="yes"/>
      <point x="8" y="195"/>
      <point x="11" y="187"/>
      <point x="19" y="187" type="curve" smooth="yes"/>
    </contour>
    <contour>
      <point x="103" y="317" type="curve" smooth="yes"/>
      <point x="103" y="122" type="line"/>
      <point x="183" y="122" type="line"/>
      <point x="183" y="321" type="line" smooth="yes"/>
      <point x="183" y="371"/>
      <point x="187" y="429"/>
      <point x="187" y="435" type="curve" smooth="yes"/>
      <point x="187" y="439"/>
      <point x="182" y="442"/>
      <point x="174" y="442" type="curve"/>
      <point x="146" y="431"/>
      <point x="105" y="422"/>
      <point x="36" y="413" type="curve"/>
      <point x="34" y="407"/>
      <point x="36" y="391"/>
      <point x="38" y="385" type="curve"/>
      <point x="92" y="380"/>
      <point x="103" y="374"/>
    </contour>
    <contour>
      <point x="116" y="187" type="line"/>
      <point x="249" y="187" type="line" smooth="yes"/>
      <point x="261" y="187"/>
      <point x="270" y="202"/>
      <point x="270" y="213" type="curve" smooth="yes"/>
      <point x="270" y="218"/>
      <point x="267" y="226"/>
      <point x="258" y="226" type="curve" smooth="yes"/>
      <point x="116" y="226" type="line"/>
    </contour>
    <contour>
      <point x="80" y="597" type="curve" smooth="yes"/>
      <point x="80" y="569"/>
      <point x="102" y="547"/>
      <point x="130" y="547" type="curve" smooth="yes"/>
      <point x="158" y="547"/>
      <point x="180" y="569"/>
      <point x="180" y="597" type="curve" smooth="yes"/>
      <point x="180" y="625"/>
      <point x="158" y="647"/>
      <point x="130" y="647" type="curve" smooth="yes"/>
      <point x="102" y="647"/>
      <point x="80" y="625"/>
    </contour>
  </outline>
</glyph>
<glyph name="uni026A" format="2">
  <advance width="274"/>
  <unicode hex="026A"/>
  <outline>
    <contour>
      <point x="25" y="-2" type="curve"/>
      <point x="58" y="-1"/>
      <point x="102" y="0"/>
      <point x="142" y="0" type="curve"/>
      <point x="142" y="122" type="line"/>
      <point x="97" y="122" type="line"/>
      <point x="97" y="40"/>
      <point x="86" y="35"/>
      <point x="25" y="31" type="curve"/>
      <point x="19" y="25"/>
      <point x="19" y="4"/>
    </contour>
    <contour>
      <point x="25" y="431" type="curve"/>
      <point x="19" y="425"/>
      <point x="19" y="404"/>
      <point x="25" y="398" type="curve"/>
      <point x="86" y="394"/>
      <point x="97" y="389"/>
      <point x="97" y="307" type="curve"/>
      <point x="177" y="307" type="line"/>
      <point x="177" y="389"/>
      <point x="188" y="394"/>
      <point x="249" y="398" type="curve"/>
      <point x="255" y="404"/>
      <point x="255" y="425"/>
      <point x="249" y="431" type="curve"/>
      <point x="216" y="430"/>
      <point x="177" y="429"/>
      <point x="137" y="429" type="curve" smooth="yes"/>
      <point x="97" y="429"/>
      <point x="58" y="430"/>
    </contour>
    <contour>
      <point x="177" y="317" type="line"/>
      <point x="97" y="317" type="line"/>
      <point x="97" y="112" type="line"/>
      <point x="177" y="112" type="line"/>
    </contour>
  </outline>
</glyph>
<glyph name="uni026E" format="2">
  <advance width="516"/>
  <unicode hex="026E"/>
  <outline>
    <contour>
      <point x="23" y="-2" type="curve"/>
      <point x="56" y="-1"/>
      <point x="100" y="0"/>
      <point x="140" y="0" type="curve"/>
      <point x="140" y="122" type="line"/>
      <point x="95" y="122" type="line"/>
      <point x="95" y="40"/>
      <point x="84" y="35"/>
      <point x="23" y="31" type="curve"/>
      <point x="17" y="25"/>
      <point x="17" y="4"/>
    </contour>
    <contour>
      <point x="165" y="327" type="line"/>
      <point x="184" y="378"/>
      <point x="214" y="395"/>
      <point x="240" y="395" type="curve" smooth="yes"/>
      <point x="385" y="395" type="line"/>
      <point x="217" y="107" type="line"/>
      <point x="234" y="92" type="line"/>
      <point x="254" y="98"/>
      <point x="282" y="103"/>
      <point x="293" y="103" type="curve" smooth="yes"/>
      <point x="371" y="103"/>
      <point x="402" y="63"/>
      <point x="402" y="-38" type="curve" smooth="yes"/>
      <point x="402" y="-146"/>
      <point x="333" y="-200"/>
      <point x="283" y="-200" type="curve" smooth="yes"/>
      <point x="243" y="-200"/>
      <point x="216" y="-162"/>
      <point x="208" y="-140" type="curve"/>
      <point x="200" y="-116"/>
      <point x="187" y="-106"/>
      <point x="164" y="-106" type="curve" smooth="yes"/>
      <point x="142" y="-106"/>
      <point x="132" y="-124"/>
      <point x="132" y="-142" type="curve" smooth="yes"/>
      <point x="132" y="-174"/>
      <point x="190" y="-235"/>
      <point x="275" y="-235" type="curve" smooth="yes"/>
      <point x="398" y="-235"/>
      <point x="483" y="-141"/>
      <point x="483" y="-22" type="curve" smooth="yes"/>
      <point x="483" y="84"/>
      <point x="402" y="137"/>
      <point x="306" y="137" type="curve"/>
      <point x="457" y="387" type="line" smooth="yes"/>
      <point x="473.226" y="413.865"/>
      <point x="479" y="425"/>
      <point x="479" y="429" type="curve" smooth="yes"/>
      <point x="479" y="433"/>
      <point x="473" y="435"/>
      <point x="466" y="435" type="curve" smooth="yes"/>
      <point x="464" y="435"/>
      <point x="428" y="429"/>
      <point x="399" y="429" type="curve" smooth="yes"/>
      <point x="196" y="429" type="line" smooth="yes"/>
      <point x="182" y="429"/>
      <point x="172" y="435"/>
      <point x="171" y="441" type="curve"/>
      <point x="151" y="441" type="line"/>
      <point x="151" y="327" type="line"/>
    </contour>
    <contour>
      <point x="95" y="110" type="line"/>
      <point x="175" y="110" type="line"/>
      <point x="175" y="685" type="line" name=".sk1"/>
      <point x="95" y="685" type="line"/>
    </contour>
    <contour>
      <point x="94.9615" y="576" type="curve"/>
      <point x="174.962" y="576" type="line"/>
      <point x="174.962" y="627.125"/>
      <point x="176.026" y="657.732"/>
      <point x="178.962" y="691" type="curve"/>
      <point x="178.962" y="695.154"/>
      <point x="173.676" y="698"/>
      <point x="165.962" y="698" type="curve"/>
      <point x="133.579" y="685.278"/>
      <point x="72.8822" y="672.523"/>
      <point x="27.9615" y="669" type="curve"/>
      <point x="26.3329" y="663.3"/>
      <point x="27.3706" y="648.773"/>
      <point x="29.9615" y="641" type="curve"/>
      <point x="86.9615" y="636"/>
      <point x="94.9615" y="628"/>
    </contour>
  </outline>
</glyph>
<glyph name="uni02BC" format="2">
  <advance width="175"/>
  <unicode hex="02BC"/>
  <outline>
    <contour>
      <point x="38" y="500" type="curve"/>
      <point x="96.6496" y="507.717"/>
      <point x="144" y="547.217"/>
      <point x="144" y="609" type="curve" smooth="yes"/>
      <point x="144" y="651.469"/>
      <point x="116.121" y="681.963"/>
      <point x="77.9903" y="681.963" type="curve" smooth="yes"/>
      <point x="50.3035" y="681.963"/>
      <point x="31" y="665.217"/>
      <point x="31" y="641" type="curve" smooth="yes"/>
      <point x="31" y="611.718"/>
      <point x="59.7396" y="600"/>
      <point x="86.6379" y="600" type="curve" smooth="yes"/>
      <point x="102.883" y="600"/>
      <point x="110.217" y="593.567"/>
      <point x="110.217" y="579.318" type="curve" smooth="yes"/>
      <point x="110.217" y="555.873"/>
      <point x="71.7733" y="527.619"/>
      <point x="33" y="520" type="curve"/>
      <point x="33" y="513"/>
      <point x="34" y="504"/>
    </contour>
  </outline>
</glyph>
<glyph name="uni02D1" format="2">
  <advance width="204"/>
  <unicode hex="02D1"/>
  <outline>
    <contour>
      <point x="36" y="404" type="line"/>
      <point x="105" y="283" type="line"/>
      <point x="175" y="404" type="line"/>
    </contour>
  </outline>
</glyph>
<glyph name="uni0300" format="2">
  <unicode hex="0300"/>
  <anchor x="-110" y="500" name="_top"/>
  <outline>
    <contour>
      <point x="-139" y="661" type="line"/>
      <point x="-143" y="662"/>
      <point x="-149" y="663"/>
      <point x="-154" y="663" type="curve" smooth="yes"/>
      <point x="-188" y="663"/>
      <point x="-211" y="646"/>
      <point x="-219" y="640" type="curve"/>
      <point x="-221" y="629" type="line"/>
      <point x="-107" y="520" type="line" smooth="yes"/>
      <point x="-91" y="505"/>
      <point x="-84" y="500"/>
      <point x="-78" y="500" type="curve" smooth="yes"/>
      <point x="-70" y="500"/>
      <point x="-63" y="506"/>
      <point x="-63" y="511" type="curve" smooth="yes"/>
      <point x="-63" y="518"/>
      <point x="-64" y="525"/>
      <point x="-69" y="535" type="curve"/>
    </contour>
  </outline>
</glyph>
<glyph name="uni030C" format="2">
  <unicode hex="030C"/>
  <anchor x="-200" y="500" name="_top"/>
  <outline>
    <contour>
      <point x="-223" y="500" type="curve"/>
      <point x="-175" y="500" type="line"/>
      <point x="-146" y="546"/>
      <point x="-109" y="591"/>
      <point x="-74" y="630" type="curve"/>
      <point x="-93" y="643" type="line"/>
      <point x="-130" y="616"/>
      <point x="-162" y="591"/>
      <point x="-199" y="553" type="curve"/>
      <point x="-233" y="589"/>
      <point x="-266" y="616"/>
      <point x="-305" y="643" type="curve"/>
      <point x="-324" y="630" type="line"/>
      <point x="-289" y="592"/>
      <point x="-252" y="547"/>
    </contour>
  </outline>
</glyph>
<glyph name="uni031B" format="2">
  <unicode hex="031B"/>
  <anchor x="-46" y="332" name="_t.horn"/>
  <outline>
    <contour>
      <point x="-15.9327" y="335" type="line" smooth="yes"/>
      <point x="34.3981" y="340.022"/>
      <point x="68.1119" y="368.314"/>
      <point x="67.991" y="423.072" type="curve" smooth="yes"/>
      <point x="67.8789" y="473.826"/>
      <point x="40.5201" y="508"/>
      <point x="0" y="508" type="curve" smooth="yes"/>
      <point x="-24.8254" y="508"/>
      <point x="-41.8972" y="489.281"/>
      <point x="-42.0359" y="461.908" type="curve" smooth="yes"/>
      <point x="-42.3323" y="403.409"/>
      <point x="34.2891" y="442.934"/>
      <point x="34.0241" y="402.104" type="curve" smooth="yes"/>
      <point x="33.8882" y="381.156"/>
      <point x="13.4012" y="374.169"/>
      <point x="-18.0086" y="370.907" type="curve" smooth="yes"/>
      <point x="-46" y="368" type="line"/>
      <point x="-46" y="332" type="line"/>
    </contour>
  </outline>
</glyph>
<glyph name="uni037A" format="2">
  <advance width="253"/>
  <unicode hex="037A"/>
  <anchor x="78" y="-60" name="_ypogegrammeni"/>
  <outline>
    <contour>
      <point x="40" y="-73" type="line"/>
      <point x="40" y="-155" type="line" smooth="yes"/>
      <point x="40" y="-213"/>
      <point x="79" y="-237"/>
      <point x="127" y="-237" type="curve" smooth="yes"/>
      <point x="152" y="-237"/>
      <point x="198" y="-223"/>
      <point x="213" y="-154" type="curve"/>
      <point x="210" y="-153"/>
      <point x="192" y="-147"/>
      <point x="188" y="-146" type="curve"/>
      <point x="181" y="-173"/>
      <point x="165" y="-197"/>
      <point x="147" y="-197" type="curve" smooth="yes"/>
      <point x="127" y="-197"/>
      <point x="115" y="-174"/>
      <point x="115" y="-119" type="curve" smooth="yes"/>
      <point x="115" y="-67" type="line"/>
      <point x="93" y="-60" type="line"/>
    </contour>
  </outline>
</glyph>
<glyph name="tonos" format="2">
  <advance width="205"/>
  <unicode hex="0384"/>
  <outline>
    <contour>
      <point x="40.5" y="510.5" type="curve" smooth="yes"/>
      <point x="40.5" y="506"/>
      <point x="46.5" y="500"/>
      <point x="54.5" y="500" type="curve" smooth="yes"/>
      <point x="58.5" y="500"/>
      <point x="63.4895" y="504.008"/>
      <point x="66.5" y="508" type="curve" smooth="yes"/>
      <point x="158.5" y="630" type="line" smooth="yes"/>
      <point x="162.355" y="635.112"/>
      <point x="164.5" y="643"/>
      <point x="164.5" y="648" type="curve" smooth="yes"/>
      <point x="164.5" y="668"/>
      <point x="142.5" y="683"/>
      <point x="122.5" y="683" type="curve" smooth="yes"/>
      <point x="109.5" y="683"/>
      <point x="98.5" y="677"/>
      <point x="94.5" y="666" type="curve" smooth="yes"/>
      <point x="42.5" y="523" type="line" smooth="yes"/>
      <point x="40.571" y="517.695"/>
      <point x="40.5" y="514.052"/>
    </contour>
  </outline>
</glyph>
<glyph name="zeta" format="2">
  <advance width="441"/>
  <unicode hex="03B6"/>
  <outline>
    <contour>
      <point x="171" y="549" type="curve" smooth="yes"/>
      <point x="191" y="549"/>
      <point x="223" y="557"/>
      <point x="247" y="566" type="curve"/>
      <point x="110" y="413"/>
      <point x="38" y="287"/>
      <point x="38" y="191" type="curve" smooth="yes"/>
      <point x="38" y="88"/>
      <point x="88" y="-6"/>
      <point x="289" y="-6" type="curve" smooth="yes"/>
      <point x="357" y="-6"/>
      <point x="371" y="-49"/>
      <point x="371" y="-89" type="curve" smooth="yes"/>
      <point x="371" y="-149"/>
      <point x="339" y="-188"/>
      <point x="302" y="-188" type="curve" smooth="yes"/>
      <point x="286" y="-188"/>
      <point x="264" y="-187"/>
      <point x="254" y="-175" type="curve"/>
      <point x="243" y="-161"/>
      <point x="222" y="-149"/>
      <point x="196" y="-149" type="curve" smooth="yes"/>
      <point x="180" y="-149"/>
      <point x="161" y="-160"/>
      <point x="161" y="-182" type="curve" smooth="yes"/>
      <point x="161" y="-207"/>
      <point x="201" y="-229"/>
      <point x="260" y="-229" type="curve" smooth="yes"/>
      <point x="362" y="-229"/>
      <point x="409" y="-144"/>
      <point x="409" y="-88" type="curve" smooth="yes"/>
      <point x="409" y="-4"/>
      <point x="366.006" y="51.0925"/>
      <point x="277" y="57" type="curve" smooth="yes"/>
      <point x="140.006" y="66.0925"/>
      <point x="124" y="128"/>
      <point x="124" y="202" type="curve" smooth="yes"/>
      <point x="124" y="276"/>
      <point x="153" y="396"/>
      <point x="293" y="575" type="curve"/>
      <point x="367" y="600"/>
      <point x="410" y="617"/>
      <point x="410" y="642" type="curve" smooth="yes"/>
      <point x="410" y="660"/>
      <point x="399" y="675"/>
      <point x="373" y="675" type="curve" smooth="yes"/>
      <point x="349" y="675"/>
      <point x="314" y="646"/>
      <point x="275" y="604" type="curve"/>
      <point x="244" y="591"/>
      <point x="209" y="582"/>
      <point x="186" y="582" type="curve" smooth="yes"/>
      <point x="158" y="582"/>
      <point x="117" y="614"/>
      <point x="117" y="678" type="curve" smooth="yes"/>
      <point x="117" y="685"/>
      <point x="117" y="692"/>
      <point x="118" y="698" type="curve"/>
      <point x="109" y="698" type="line"/>
      <point x="86" y="688"/>
      <point x="72" y="682"/>
      <point x="52" y="658" type="curve"/>
      <point x="65" y="590"/>
      <point x="113" y="549"/>
    </contour>
  </outline>
</glyph>
<glyph name="lambda" format="2">
  <advance width="531"/>
  <unicode hex="03BB"/>
  <outline>
    <contour>
      <point x="524" y="66" type="curve"/>
      <point x="521" y="75"/>
      <point x="515" y="80"/>
      <point x="504" y="82" type="curve"/>
      <point x="483" y="56"/>
      <point x="463" y="51"/>
      <point x="442" y="51" type="curve" smooth="yes"/>
      <point x="410" y="51"/>
      <point x="398" y="82"/>
      <point x="359" y="214" type="curve" smooth="yes"/>
      <point x="252" y="569" type="line" smooth="yes"/>
      <point x="217" y="687"/>
      <point x="161" y="698"/>
      <point x="131" y="698" type="curve" smooth="yes"/>
      <point x="92" y="698"/>
      <point x="60" y="667"/>
      <point x="34" y="629" type="curve"/>
      <point x="34" y="619.056"/>
      <point x="40.5252" y="612"/>
      <point x="47.224" y="612" type="curve"/>
      <point x="67.224" y="627"/>
      <point x="97" y="637"/>
      <point x="122" y="637" type="curve" smooth="yes"/>
      <point x="150" y="637"/>
      <point x="189" y="616"/>
      <point x="230" y="478" type="curve" smooth="yes"/>
      <point x="243" y="435" type="line"/>
      <point x="22" y="0" type="line"/>
      <point x="47" y="-12" type="line"/>
      <point x="70" y="-6"/>
      <point x="95" y="-2"/>
      <point x="122" y="0" type="curve"/>
      <point x="265" y="363" type="line"/>
      <point x="336" y="126" type="line" smooth="yes"/>
      <point x="364" y="33"/>
      <point x="388" y="-10"/>
      <point x="438" y="-10" type="curve" smooth="yes"/>
      <point x="467" y="-10"/>
      <point x="506" y="27"/>
    </contour>
  </outline>
</glyph>
<glyph name="phi" format="2">
  <advance width="589"/>
  <unicode hex="03C6"/>
  <outline>
    <contour>
      <point x="236" y="-8" type="line" smooth="yes"/>
      <point x="236" y="-124.206"/>
      <point x="226.654" y="-182.484"/>
      <point x="202" y="-220" type="curve"/>
      <point x="214" y="-238" type="line"/>
      <point x="305" y="-204" type="line"/>
      <point x="316" y="-162"/>
      <point x="316" y="-93"/>
      <point x="316" y="-8" type="curve" smooth="yes"/>
      <point x="316" y="276" type="line" smooth="yes"/>
      <point x="316" y="363.312"/>
      <point x="334.935" y="400"/>
      <point x="380" y="400" type="curve" smooth="yes"/>
      <point x="434.835" y="400"/>
      <point x="466" y="334.047"/>
      <point x="466" y="218" type="curve" smooth="yes"/>
      <point x="466" y="99.2313"/>
      <point x="405.477" y="25.3657"/>
      <point x="304.173" y="20.4979" type="curve"/>
      <point x="304.173" y="-8.54786" type="line"/>
      <point x="448.795" y="-0.73705"/>
      <point x="546" y="97.9631"/>
      <point x="546" y="237" type="curve" smooth="yes"/>
      <point x="546" y="357.361"/>
      <point x="478.911" y="439"/>
      <point x="380" y="439" type="curve" smooth="yes"/>
      <point x="294.354" y="439"/>
      <point x="236" y="366.463"/>
      <point x="236" y="260" type="curve" smooth="yes"/>
    </contour>
    <contour>
      <point x="277.288" y="-8.70376" type="curve"/>
      <point x="277.674" y="20.0301" type="line"/>
      <point x="168.7" y="20.0301"/>
      <point x="119" y="82.0386"/>
      <point x="119" y="218" type="curve" smooth="yes"/>
      <point x="119" y="301.346"/>
      <point x="148.544" y="372.835"/>
      <point x="200" y="414" type="curve"/>
      <point x="181" y="435" type="line"/>
      <point x="95.8614" y="394.282"/>
      <point x="39" y="303.521"/>
      <point x="39" y="208.344" type="curve" smooth="yes"/>
      <point x="39" y="78.2769"/>
      <point x="134.493" y="-8.70377"/>
    </contour>
  </outline>
</glyph>
<glyph name="uni0432" format="2">
  <advance width="474"/>
  <unicode hex="0432"/>
  <anchor x="209" y="500" name="top"/>
  <outline>
    <contour>
      <point x="30" y="-2" type="curve"/>
      <point x="63" y="-1"/>
      <point x="98" y="0"/>
      <point x="142" y="0" type="curve" smooth="yes"/>
      <point x="179" y="0"/>
      <point x="212" y="-2"/>
      <point x="279" y="-2" type="curve" smooth="yes"/>
      <point x="365" y="-2"/>
      <point x="430" y="22"/>
      <point x="430" y="121" type="curve" smooth="yes"/>
      <point x="430" y="177"/>
      <point x="395" y="216"/>
      <point x="334" y="227" type="curve"/>
      <point x="334" y="230" type="line"/>
      <point x="380" y="239"/>
      <point x="415" y="271"/>
      <point x="415" y="331" type="curve" smooth="yes"/>
      <point x="415" y="401"/>
      <point x="372" y="431"/>
      <point x="251" y="431" type="curve" smooth="yes"/>
      <point x="210" y="431"/>
      <point x="184" y="429"/>
      <point x="141" y="429" type="curve" smooth="yes"/>
      <point x="98" y="429"/>
      <point x="63" y="430"/>
      <point x="30" y="431" type="curve"/>
      <point x="24" y="425"/>
      <point x="24" y="404"/>
      <point x="30" y="398" type="curve"/>
      <point x="91" y="394"/>
      <point x="102" y="390"/>
      <point x="102" y="307" type="curve" smooth="yes"/>
      <point x="102" y="122" type="line" smooth="yes"/>
      <point x="102" y="39"/>
      <point x="91" y="36"/>
      <point x="30" y="31" type="curve"/>
      <point x="24" y="25"/>
      <point x="24" y="4"/>
    </contour>
    <contour>
      <point x="181" y="217" type="line"/>
      <point x="257" y="217" type="line" smooth="yes"/>
      <point x="318" y="217"/>
      <point x="344" y="177"/>
      <point x="344" y="117" type="curve" smooth="yes"/>
      <point x="344" y="50"/>
      <point x="306" y="31"/>
      <point x="252" y="31" type="curve" smooth="yes"/>
      <point x="200" y="31"/>
      <point x="181" y="40"/>
      <point x="181" y="86" type="curve" smooth="yes"/>
    </contour>
    <contour>
      <point x="181" y="246" type="line"/>
      <point x="181" y="362" type="line" smooth="yes"/>
      <point x="181" y="392"/>
      <point x="204" y="398"/>
      <point x="252" y="398" type="curve" smooth="yes"/>
      <point x="304" y="398"/>
      <point x="335" y="384"/>
      <point x="335" y="324" type="curve" smooth="yes"/>
      <point x="335" y="284"/>
      <point x="309" y="246"/>
      <point x="247" y="246" type="curve" smooth="yes"/>
    </contour>
  </outline>
</glyph>
<glyph name="uni043D" format="2">
  <advance width="581"/>
  <unicode hex="043D"/>
  <anchor x="288" y="500" name="top"/>
  <outline>
    <contour>
      <point x="166" y="209" type="line"/>
      <point x="410" y="209" type="line"/>
      <point x="410" y="242" type="line"/>
      <point x="166" y="242" type="line"/>
    </contour>
    <contour>
      <point x="395" y="122" type="line" smooth="yes"/>
      <point x="395" y="39"/>
      <point x="388" y="36"/>
      <point x="327" y="31" type="curve"/>
      <point x="321" y="25"/>
      <point x="321" y="4"/>
      <point x="327" y="-2" type="curve"/>
      <point x="363" y="-1"/>
      <point x="400" y="0"/>
      <point x="435" y="0" type="curve" smooth="yes"/>
      <point x="465" y="0"/>
      <point x="507" y="-1"/>
      <point x="546" y="-2" type="curve"/>
      <point x="552" y="4"/>
      <point x="552" y="25"/>
      <point x="546" y="31" type="curve"/>
      <point x="485" y="35"/>
      <point x="474" y="39"/>
      <point x="474" y="122" type="curve" smooth="yes"/>
      <point x="474" y="307" type="line" smooth="yes"/>
      <point x="474" y="390"/>
      <point x="485" y="393"/>
      <point x="546" y="398" type="curve"/>
      <point x="552" y="404"/>
      <point x="552" y="425"/>
      <point x="546" y="431" type="curve"/>
      <point x="511" y="429"/>
      <point x="467" y="429"/>
      <point x="434" y="429" type="curve" smooth="yes"/>
      <point x="406" y="429"/>
      <point x="366" y="430"/>
      <point x="327" y="431" type="curve"/>
      <point x="321" y="425"/>
      <point x="321" y="404"/>
      <point x="327" y="398" type="curve"/>
      <point x="388" y="394"/>
      <point x="395" y="390"/>
      <point x="395" y="307" type="curve" smooth="yes"/>
    </contour>
    <contour>
      <point x="30" y="-2" type="curve"/>
      <point x="70" y="-1"/>
      <point x="110" y="0"/>
      <point x="142" y="0" type="curve" smooth="yes"/>
      <point x="174" y="0"/>
      <point x="213" y="-1"/>
      <point x="249" y="-2" type="curve"/>
      <point x="255" y="4"/>
      <point x="255" y="25"/>
      <point x="249" y="31" type="curve"/>
      <point x="188" y="35"/>
      <point x="181" y="39"/>
      <point x="181" y="122" type="curve" smooth="yes"/>
      <point x="181" y="307" type="line" smooth="yes"/>
      <point x="181" y="390"/>
      <point x="188" y="393"/>
      <point x="249" y="398" type="curve"/>
      <point x="255" y="404"/>
      <point x="255" y="425"/>
      <point x="249" y="431" type="curve"/>
      <point x="211" y="430"/>
      <point x="173" y="429"/>
      <point x="141" y="429" type="curve" smooth="yes"/>
      <point x="111" y="429"/>
      <point x="70" y="430"/>
      <point x="30" y="431" type="curve"/>
      <point x="24" y="425"/>
      <point x="24" y="404"/>
      <point x="30" y="398" type="curve"/>
      <point x="91" y="394"/>
      <point x="102" y="390"/>
      <point x="102" y="307" type="curve" smooth="yes"/>
      <point x="102" y="122" type="line" smooth="yes"/>
      <point x="102" y="39"/>
      <point x="91" y="36"/>
      <point x="30" y="31" type="curve"/>
      <point x="24" y="25"/>
      <point x="24" y="4"/>
    </contour>
  </outline>
</glyph>
<glyph name="uni044B" format="2">
  <advance width="719"/>
  <unicode hex="044B"/>
  <anchor x="365" y="500" name="top"/>
  <outline>
    <contour>
      <point x="30" y="-2" type="curve"/>
      <point x="63" y="-1"/>
      <point x="98" y="0"/>
      <point x="142" y="0" type="curve" smooth="yes"/>
      <point x="183" y="0"/>
      <point x="205" y="-2"/>
      <point x="246" y="-2" type="curve" smooth="yes"/>
      <point x="369" y="-2"/>
      <point x="436" y="29"/>
      <point x="436" y="136" type="curve" smooth="yes"/>
      <point x="436" y="230"/>
      <point x="354" y="257"/>
      <point x="253" y="257" type="curve" smooth="yes"/>
      <point x="181" y="257" type="line"/>
      <point x="181" y="306" type="line" smooth="yes"/>
      <point x="181" y="390"/>
      <point x="192" y="393"/>
      <point x="253" y="398" type="curve"/>
      <point x="259" y="404"/>
      <point x="259" y="425"/>
      <point x="253" y="431" type="curve"/>
      <point x="219" y="430"/>
      <point x="185" y="429"/>
      <point x="141" y="429" type="curve" smooth="yes"/>
      <point x="98" y="429"/>
      <point x="63" y="430"/>
      <point x="30" y="431" type="curve"/>
      <point x="24" y="425"/>
      <point x="24" y="404"/>
      <point x="30" y="398" type="curve"/>
      <point x="91" y="394"/>
      <point x="102" y="390"/>
      <point x="102" y="307" type="curve" smooth="yes"/>
      <point x="102" y="122" type="line" smooth="yes"/>
      <point x="102" y="39"/>
      <point x="91" y="36"/>
      <point x="30" y="31" type="curve"/>
      <point x="24" y="25"/>
      <point x="24" y="4"/>
    </contour>
    <contour>
      <point x="181" y="76" type="curve" smooth="yes"/>
      <point x="181" y="224" type="line"/>
      <point x="252" y="224" type="line" smooth="yes"/>
      <point x="327" y="224"/>
      <point x="350" y="179"/>
      <point x="350" y="126" type="curve" smooth="yes"/>
      <point x="350" y="44"/>
      <point x="300" y="31"/>
      <point x="247" y="31" type="curve" smooth="yes"/>
      <point x="198" y="31"/>
      <point x="181" y="41"/>
    </contour>
    <contour>
      <point x="612" y="307" type="line" smooth="yes"/>
      <point x="612" y="390"/>
      <point x="623" y="393"/>
      <point x="684" y="398" type="curve"/>
      <point x="690" y="404"/>
      <point x="690" y="425"/>
      <point x="684" y="431" type="curve"/>
      <point x="650" y="430"/>
      <point x="616" y="429"/>
      <point x="572" y="429" type="curve" smooth="yes"/>
      <point x="529" y="429"/>
      <point x="494" y="430"/>
      <point x="461" y="431" type="curve"/>
      <point x="455" y="425"/>
      <point x="455" y="404"/>
      <point x="461" y="398" type="curve"/>
      <point x="522" y="394"/>
      <point x="533" y="390"/>
      <point x="533" y="307" type="curve" smooth="yes"/>
      <point x="533" y="122" type="line" smooth="yes"/>
      <point x="533" y="39"/>
      <point x="522" y="36"/>
      <point x="461" y="31" type="curve"/>
      <point x="455" y="25"/>
      <point x="455" y="4"/>
      <point x="461" y="-2" type="curve"/>
      <point x="494" y="-1"/>
      <point x="529" y="0"/>
      <point x="573" y="0" type="curve" smooth="yes"/>
      <point x="616" y="0"/>
      <point x="652" y="-1"/>
      <point x="684" y="-2" type="curve"/>
      <point x="690" y="4"/>
      <point x="690" y="25"/>
      <point x="684" y="31" type="curve"/>
      <point x="623" y="35"/>
      <point x="612" y="39"/>
      <point x="612" y="122" type="curve" smooth="yes"/>
    </contour>
  </outline>
</glyph>
<glyph name="uni044E" format="2">
  <advance width="726"/>
  <unicode hex="044E"/>
  <anchor x="302" y="500" name="top"/>
  <outline>
    <contour>
      <point x="181" y="198" type="line"/>
      <point x="284" y="198" type="line"/>
      <point x="286" y="97"/>
      <point x="349" y="-10"/>
      <point x="484" y="-10" type="curve" smooth="yes"/>
      <point x="631" y="-10"/>
      <point x="686" y="117"/>
      <point x="686" y="217" type="curve" smooth="yes"/>
      <point x="686" y="321"/>
      <point x="637" y="439"/>
      <point x="485" y="439" type="curve" smooth="yes"/>
      <point x="364" y="439"/>
      <point x="296" y="356"/>
      <point x="285" y="237" type="curve"/>
      <point x="181" y="237" type="line"/>
      <point x="181" y="307" type="line" smooth="yes"/>
      <point x="181" y="390"/>
      <point x="192" y="393"/>
      <point x="253" y="398" type="curve"/>
      <point x="259" y="404"/>
      <point x="259" y="425"/>
      <point x="253" y="431" type="curve"/>
      <point x="219" y="430"/>
      <point x="185" y="429"/>
      <point x="141" y="429" type="curve" smooth="yes"/>
      <point x="98" y="429"/>
      <point x="63" y="430"/>
      <point x="30" y="431" type="curve"/>
      <point x="24" y="425"/>
      <point x="24" y="404"/>
      <point x="30" y="398" type="curve"/>
      <point x="91" y="394"/>
      <point x="102" y="390"/>
      <point x="102" y="307" type="curve" smooth="yes"/>
      <point x="102" y="122" type="line" smooth="yes"/>
      <point x="102" y="39"/>
      <point x="91" y="36"/>
      <point x="30" y="31" type="curve"/>
      <point x="24" y="25"/>
      <point x="24" y="4"/>
      <point x="30" y="-2" type="curve"/>
      <point x="63" y="-1"/>
      <point x="98" y="0"/>
      <point x="142" y="0" type="curve" smooth="yes"/>
      <point x="185" y="0"/>
      <point x="221" y="-1"/>
      <point x="253" y="-2" type="curve"/>
      <point x="259" y="4"/>
      <point x="259" y="25"/>
      <point x="253" y="31" type="curve"/>
      <point x="192" y="35"/>
      <point x="181" y="39"/>
      <point x="181" y="122" type="curve" smooth="yes"/>
    </contour>
    <contour>
      <point x="475" y="404" type="curve" smooth="yes"/>
      <point x="557" y="404"/>
      <point x="600" y="331"/>
      <point x="600" y="185" type="curve" smooth="yes"/>
      <point x="600" y="53"/>
      <point x="545" y="25"/>
      <point x="502" y="25" type="curve" smooth="yes"/>
      <point x="403" y="25"/>
      <point x="370" y="149"/>
      <point x="370" y="226" type="curve" smooth="yes"/>
      <point x="370" y="313"/>
      <point x="397" y="404"/>
    </contour>
  </outline>
</glyph>
<glyph name="uni05D3" format="2">
  <advance width="438"/>
  <unicode hex="05D3"/>
  <outline>
    <contour>
      <point x="331" y="291" type="curve" smooth="yes"/>
      <point x="331" y="345"/>
      <point x="352" y="366"/>
      <point x="374" y="384" type="curve" smooth="yes"/>
      <point x="395" y="402"/>
      <point x="416" y="417"/>
      <point x="416" y="458" type="curve" smooth="yes"/>
      <point x="416" y="502"/>
      <point x="391" y="520"/>
      <point x="346" y="520" type="curve" smooth="yes"/>
      <point x="341" y="520"/>
      <point x="336" y="520"/>
      <point x="331" y="520" type="curve" smooth="yes"/>
      <point x="124" y="520" type="line" smooth="yes"/>
      <point x="97" y="520"/>
      <point x="81" y="531"/>
      <point x="75" y="554" type="curve"/>
      <point x="75" y="554"/>
      <point x="33" y="548"/>
      <point x="33" y="474" type="curve" smooth="yes"/>
      <point x="33" y="433"/>
      <point x="58" y="413"/>
      <point x="108" y="413" type="curve" smooth="yes"/>
      <point x="113" y="413"/>
      <point x="118" y="413"/>
      <point x="123" y="413" type="curve" smooth="yes"/>
      <point x="356" y="413" type="line"/>
      <point x="299" y="368"/>
      <point x="271" y="297"/>
      <point x="271" y="207" type="curve" smooth="yes"/>
      <point x="271" y="185"/>
      <point x="272.098" y="164.004"/>
      <point x="273" y="141" type="curve" smooth="yes"/>
      <point x="274.098" y="113.004"/>
      <point x="275" y="83"/>
      <point x="275" y="49" type="curve" smooth="yes"/>
      <point x="275" y="28"/>
      <point x="271" y="11"/>
      <point x="263" y="-1" type="curve"/>
      <point x="269" y="-1" type="line" smooth="yes"/>
      <point x="270" y="-1"/>
      <point x="272" y="-1"/>
      <point x="274" y="-1" type="curve" smooth="yes"/>
      <point x="298" y="-1"/>
      <point x="342" y="6"/>
      <point x="342" y="85" type="curve" smooth="yes"/>
      <point x="342" y="120"/>
      <point x="339" y="154"/>
      <point x="337" y="188" type="curve"/>
      <point x="334" y="223"/>
      <point x="331" y="257"/>
    </contour>
  </outline>
</glyph>
<glyph name="uni1FEF" format="2">
  <advance width="204"/>
  <unicode hex="1FEF"/>
  <anchor x="140" y="500" name="_t.gr_UC"/>
  <anchor x="140" y="500" name="_t.gr_LC"/>
  <outline>
    <contour>
      <point x="152" y="500" type="curve" smooth="yes"/>
      <point x="158" y="500"/>
      <point x="164" y="505"/>
      <point x="164" y="510" type="curve" smooth="yes"/>
      <point x="164" y="516"/>
      <point x="163" y="520"/>
      <point x="162" y="523" type="curve" smooth="yes"/>
      <point x="107" y="667" type="line" smooth="yes"/>
      <point x="103" y="678"/>
      <point x="91" y="683"/>
      <point x="80" y="683" type="curve" smooth="yes"/>
      <point x="58" y="683"/>
      <point x="40" y="669"/>
      <point x="40" y="654" type="curve" smooth="yes"/>
      <point x="40" y="644"/>
      <point x="44" y="636"/>
      <point x="47" y="632" type="curve" smooth="yes"/>
      <point x="144" y="503" type="line" smooth="yes"/>
      <point x="146" y="501"/>
      <point x="149" y="500"/>
    </contour>
  </outline>
</glyph>
<glyph name="peseta" format="2">
  <advance width="946"/>
  <unicode hex="20A7"/>
  <outline>
    <contour>
      <point x="14.5" y="0" type="line"/>
      <point x="49.5" y="0"/>
      <point x="109" y="-1"/>
      <point x="159" y="-2" type="curve"/>
      <point x="165" y="4"/>
      <point x="165" y="25"/>
      <point x="159" y="31" type="curve"/>
      <point x="81" y="35"/>
      <point x="57" y="39"/>
      <point x="57" y="122" type="curve" smooth="yes"/>
      <point x="57" y="554" type="line" smooth="yes"/>
      <point x="57" y="583"/>
      <point x="72" y="618"/>
      <point x="144" y="618" type="curve" smooth="yes"/>
      <point x="213" y="618"/>
      <point x="282" y="595"/>
      <point x="282" y="468" type="curve" smooth="yes"/>
      <point x="282" y="360"/>
      <point x="230" y="316"/>
      <point x="133" y="316" type="curve" smooth="yes"/>
      <point x="81" y="316"/>
      <point x="59" y="319"/>
      <point x="24" y="325" type="curve"/>
      <point x="24" y="313"/>
      <point x="29" y="302"/>
      <point x="38" y="292" type="curve"/>
      <point x="63" y="286"/>
      <point x="97" y="282"/>
      <point x="138" y="282" type="curve" smooth="yes"/>
      <point x="320" y="282"/>
      <point x="375" y="401"/>
      <point x="375" y="486" type="curve" smooth="yes"/>
      <point x="375" y="545"/>
      <point x="336" y="652"/>
      <point x="151" y="652" type="curve" smooth="yes"/>
      <point x="113" y="652"/>
      <point x="54.5" y="645"/>
      <point x="14.5" y="645" type="curve"/>
    </contour>
    <contour>
      <point x="371" y="429" type="line" smooth="yes"/>
      <point x="357" y="429"/>
      <point x="341" y="422"/>
      <point x="331" y="414" type="curve"/>
      <point x="331" y="396" type="line" smooth="yes"/>
      <point x="331" y="391"/>
      <point x="332" y="390"/>
      <point x="336" y="390" type="curve" smooth="yes"/>
      <point x="395" y="390" type="line"/>
      <point x="395" y="89" type="line" smooth="yes"/>
      <point x="395" y="18"/>
      <point x="427" y="-10"/>
      <point x="473" y="-10" type="curve" smooth="yes"/>
      <point x="519" y="-10"/>
      <point x="569" y="12"/>
      <point x="608" y="56" type="curve"/>
      <point x="606" y="66"/>
      <point x="600" y="72"/>
      <point x="590" y="73" type="curve"/>
      <point x="564" y="53"/>
      <point x="534" y="45"/>
      <point x="508" y="45" type="curve" smooth="yes"/>
      <point x="481" y="45"/>
      <point x="475" y="75"/>
      <point x="475" y="137" type="curve" smooth="yes"/>
      <point x="475" y="390" type="line"/>
      <point x="579" y="390" type="line" smooth="yes"/>
      <point x="589" y="390"/>
      <point x="603" y="394"/>
      <point x="603" y="403" type="curve" smooth="yes"/>
      <point x="603" y="423" type="line" smooth="yes"/>
      <point x="603" y="427"/>
      <point x="600" y="429"/>
      <point x="595" y="429" type="curve" smooth="yes"/>
      <point x="475" y="429" type="line"/>
      <point x="476" y="468" type="line" smooth="yes"/>
      <point x="477.667" y="533.009"/>
      <point x="483" y="569"/>
      <point x="483" y="573" type="curve" smooth="yes"/>
      <point x="483" y="579"/>
      <point x="480" y="582"/>
      <point x="475" y="582" type="curve" smooth="yes"/>
      <point x="470" y="582"/>
      <point x="403" y="552"/>
      <point x="401" y="545" type="curve"/>
      <point x="398" y="532"/>
      <point x="395" y="487"/>
      <point x="395" y="429" type="curve"/>
    </contour>
    <contour>
      <point x="614" y="138" type="curve"/>
      <point x="624.493" y="89.0941"/>
      <point x="628.071" y="43"/>
      <point x="628.071" y="0" type="curve"/>
      <point x="673.096" y="0.1867"/>
      <point x="711.888" y="-10"/>
      <point x="757" y="-10" type="curve" smooth="yes"/>
      <point x="846.099" y="-10"/>
      <point x="906" y="40.5415"/>
      <point x="906" y="117" type="curve" smooth="yes"/>
      <point x="906" y="184"/>
      <point x="857" y="224"/>
      <point x="789" y="249" type="curve" smooth="yes"/>
      <point x="729" y="272"/>
      <point x="689" y="287"/>
      <point x="689" y="335" type="curve" smooth="yes"/>
      <point x="689" y="381"/>
      <point x="725" y="404"/>
      <point x="760" y="404" type="curve" smooth="yes"/>
      <point x="781" y="404"/>
      <point x="839" y="396"/>
      <point x="852" y="311" type="curve"/>
      <point x="858" y="307"/>
      <point x="878" y="308"/>
      <point x="884" y="312" type="curve"/>
      <point x="878" y="351.307"/>
      <point x="876.461" y="385"/>
      <point x="877.461" y="419" type="curve"/>
      <point x="846.461" y="424"/>
      <point x="811" y="439"/>
      <point x="767" y="439" type="curve" smooth="yes"/>
      <point x="678.948" y="439"/>
      <point x="618" y="391.904"/>
      <point x="618" y="325" type="curve" smooth="yes"/>
      <point x="618" y="254"/>
      <point x="651" y="223"/>
      <point x="737" y="188" type="curve" smooth="yes"/>
      <point x="811" y="157"/>
      <point x="830" y="136"/>
      <point x="830" y="102" type="curve" smooth="yes"/>
      <point x="830" y="53.5617"/>
      <point x="799.955" y="25"/>
      <point x="749" y="25" type="curve" smooth="yes"/>
      <point x="675" y="25"/>
      <point x="661" y="78"/>
      <point x="645" y="139" type="curve"/>
      <point x="639" y="145"/>
      <point x="620" y="144"/>
    </contour>
  </outline>
</glyph>
<glyph name="uni20A8" format="2">
  <advance width="686"/>
  <unicode hex="20A8"/>
  <outline>
    <contour>
      <point x="14.5" y="0" type="line"/>
      <point x="52.5" y="0"/>
      <point x="100" y="-1"/>
      <point x="144" y="-2" type="curve"/>
      <point x="150" y="4"/>
      <point x="150" y="25"/>
      <point x="144" y="31" type="curve"/>
      <point x="74" y="34"/>
      <point x="57" y="39"/>
      <point x="57" y="122" type="curve" smooth="yes"/>
      <point x="57" y="291" type="line"/>
      <point x="141" y="291"/>
      <point x="160" y="276"/>
      <point x="174" y="253" type="curve" smooth="yes"/>
      <point x="281" y="79" type="line" smooth="yes"/>
      <point x="310" y="32"/>
      <point x="353" y="-10"/>
      <point x="413" y="-10" type="curve" smooth="yes"/>
      <point x="428" y="-10"/>
      <point x="445" y="-8"/>
      <point x="455" y="-3" type="curve"/>
      <point x="459" y="4"/>
      <point x="458" y="13"/>
      <point x="454" y="21" type="curve"/>
      <point x="409" y="21"/>
      <point x="384" y="55"/>
      <point x="358" y="98" type="curve" smooth="yes"/>
      <point x="232" y="308" type="line"/>
      <point x="275" y="322"/>
      <point x="365" y="374"/>
      <point x="365" y="479" type="curve" smooth="yes"/>
      <point x="365" y="615"/>
      <point x="255" y="652"/>
      <point x="139" y="652" type="curve" smooth="yes"/>
      <point x="92" y="652"/>
      <point x="50.5" y="645"/>
      <point x="14.5" y="645" type="curve"/>
    </contour>
    <contour>
      <point x="57" y="325" type="line"/>
      <point x="57" y="554" type="line" smooth="yes"/>
      <point x="57" y="583"/>
      <point x="69" y="618"/>
      <point x="140" y="618" type="curve" smooth="yes"/>
      <point x="201" y="618"/>
      <point x="273" y="596"/>
      <point x="273" y="478" type="curve" smooth="yes"/>
      <point x="273" y="353"/>
      <point x="202" y="325"/>
      <point x="105" y="325" type="curve" smooth="yes"/>
    </contour>
    <contour>
      <point x="354" y="138" type="curve"/>
      <point x="364.493" y="89.0941"/>
      <point x="368.071" y="43"/>
      <point x="368.071" y="0" type="curve"/>
      <point x="413.096" y="0.1867"/>
      <point x="451.888" y="-10"/>
      <point x="497" y="-10" type="curve" smooth="yes"/>
      <point x="586.099" y="-10"/>
      <point x="646" y="40.5415"/>
      <point x="646" y="117" type="curve" smooth="yes"/>
      <point x="646" y="184"/>
      <point x="597" y="224"/>
      <point x="529" y="249" type="curve" smooth="yes"/>
      <point x="469" y="272"/>
      <point x="429" y="287"/>
      <point x="429" y="335" type="curve" smooth="yes"/>
      <point x="429" y="381"/>
      <point x="465" y="404"/>
      <point x="500" y="404" type="curve" smooth="yes"/>
      <point x="521" y="404"/>
      <point x="579" y="396"/>
      <point x="592" y="311" type="curve"/>
      <point x="598" y="307"/>
      <point x="618" y="308"/>
      <point x="624" y="312" type="curve"/>
      <point x="618" y="351.307"/>
      <point x="616.461" y="385"/>
      <point x="617.461" y="419" type="curve"/>
      <point x="586.461" y="424"/>
      <point x="551" y="439"/>
      <point x="507" y="439" type="curve" smooth="yes"/>
      <point x="418.948" y="439"/>
      <point x="358" y="391.904"/>
      <point x="358" y="325" type="curve" smooth="yes"/>
      <point x="358" y="254"/>
      <point x="391" y="223"/>
      <point x="477" y="188" type="curve" smooth="yes"/>
      <point x="551" y="157"/>
      <point x="570" y="136"/>
      <point x="570" y="102" type="curve" smooth="yes"/>
      <point x="570" y="53.5617"/>
      <point x="539.955" y="25"/>
      <point x="489" y="25" type="curve" smooth="yes"/>
      <point x="415" y="25"/>
      <point x="401" y="78"/>
      <point x="385" y="139" type="curve"/>
      <point x="379" y="145"/>
      <point x="360" y="144"/>
    </contour>
  </outline>
</glyph>
<glyph name="uni215F" format="2">
  <advance width="322"/>
  <unicode hex="215F"/>
  <outline>
    <contour>
      <point x="95" y="587.016" type="curve" smooth="yes"/>
      <point x="107" y="587.016"/>
      <point x="109" y="578.016"/>
      <point x="109" y="546.016" type="curve" smooth="yes"/>
      <point x="109" y="416.016" type="line" smooth="yes"/>
      <point x="109" y="365.016"/>
      <point x="78" y="362.016"/>
      <point x="38" y="360.016" type="curve"/>
      <point x="33" y="352.016"/>
      <point x="34" y="337.016"/>
      <point x="38" y="331.016" type="curve"/>
      <point x="68" y="332.016"/>
      <point x="99" y="332.016"/>
      <point x="134" y="332.016" type="curve" smooth="yes"/>
      <point x="167" y="332.016"/>
      <point x="188" y="332.016"/>
      <point x="218" y="331.016" type="curve"/>
      <point x="222" y="338.016"/>
      <point x="222" y="352.016"/>
      <point x="218" y="360.016" type="curve"/>
      <point x="184" y="362.016"/>
      <point x="163" y="365.016"/>
      <point x="163" y="416.016" type="curve" smooth="yes"/>
      <point x="163" y="547.421" type="line" smooth="yes"/>
      <point x="163" y="582.952"/>
      <point x="162.68" y="619.51"/>
      <point x="167" y="655.016" type="curve"/>
      <point x="164.799" y="657.217"/>
      <point x="162.012" y="658.07"/>
      <point x="159.156" y="658.076" type="curve" smooth="yes"/>
      <point x="155.525" y="658.083"/>
      <point x="151.784" y="656.72"/>
      <point x="149" y="655.016" type="curve" smooth="yes"/>
      <point x="104.973" y="628.061"/>
      <point x="75" y="616.016"/>
      <point x="28" y="599.016" type="curve"/>
      <point x="28" y="587.016"/>
      <point x="30" y="578.016"/>
      <point x="38" y="572.016" type="curve"/>
      <point x="63" y="581.016"/>
      <point x="82" y="587.016"/>
    </contour>
    <contour>
      <point x="503.794" y="656.717" type="line"/>
      <point x="36.6015" y="-10" type="line"/>
      <point x="77.6015" y="-10" type="line"/>
      <point x="545.794" y="656.717" type="line"/>
    </contour>
  </outline>
</glyph>
<glyph name="uni2210" format="2">
  <advance width="671"/>
  <unicode hex="2210"/>
  <outline>
    <contour>
      <point x="106" y="123" type="line" smooth="yes"/>
      <point x="106" y="40"/>
      <point x="89" y="35"/>
      <point x="19" y="32" type="curve"/>
      <point x="13" y="26"/>
      <point x="13" y="5"/>
      <point x="19" y="-1" type="curve"/>
      <point x="69" y="0"/>
      <point x="121" y="1"/>
      <point x="148" y="1" type="curve" smooth="yes"/>
      <point x="207" y="1"/>
      <point x="266" y="1"/>
      <point x="326" y="1" type="curve" smooth="yes"/>
      <point x="391" y="1"/>
      <point x="457" y="1"/>
      <point x="523" y="1" type="curve" smooth="yes"/>
      <point x="546" y="1"/>
      <point x="602" y="0"/>
      <point x="652" y="-1" type="curve"/>
      <point x="658" y="5"/>
      <point x="658" y="26"/>
      <point x="652" y="32" type="curve"/>
      <point x="582" y="35"/>
      <point x="565" y="40"/>
      <point x="565" y="123" type="curve" smooth="yes"/>
      <point x="565" y="524" type="line" smooth="yes"/>
      <point x="565" y="607"/>
      <point x="582" y="612"/>
      <point x="652" y="615" type="curve"/>
      <point x="658" y="621"/>
      <point x="658" y="642"/>
      <point x="652" y="648" type="curve"/>
      <point x="613" y="647"/>
      <point x="562" y="646"/>
      <point x="522" y="646" type="curve"/>
      <point x="522" y="646" type="line"/>
      <point x="484" y="646"/>
      <point x="433" y="647"/>
      <point x="393" y="648" type="curve"/>
      <point x="387" y="642"/>
      <point x="387" y="621"/>
      <point x="393" y="615" type="curve"/>
      <point x="463" y="612"/>
      <point x="480" y="607"/>
      <point x="480" y="524" type="curve" smooth="yes"/>
      <point x="480" y="115" type="line" smooth="yes"/>
      <point x="480" y="53"/>
      <point x="458" y="41"/>
      <point x="434" y="41" type="curve" smooth="yes"/>
      <point x="414" y="41"/>
      <point x="395" y="41"/>
      <point x="375" y="41" type="curve" smooth="yes"/>
      <point x="276" y="41" type="line" smooth="yes"/>
      <point x="263" y="41"/>
      <point x="250" y="41"/>
      <point x="237" y="41" type="curve" smooth="yes"/>
      <point x="213" y="41"/>
      <point x="191" y="53"/>
      <point x="191" y="115" type="curve" smooth="yes"/>
      <point x="191" y="524" type="line" smooth="yes"/>
      <point x="191" y="607"/>
      <point x="208" y="612"/>
      <point x="278" y="615" type="curve"/>
      <point x="284" y="621"/>
      <point x="284" y="642"/>
      <point x="278" y="648" type="curve"/>
      <point x="240" y="647"/>
      <point x="185" y="646"/>
      <point x="149" y="646" type="curve" smooth="yes"/>
      <point x="110" y="646"/>
      <point x="57" y="647"/>
      <point x="19" y="648" type="curve"/>
      <point x="13" y="642"/>
      <point x="13" y="621"/>
      <point x="19" y="615" type="curve"/>
      <point x="89" y="612"/>
      <point x="106" y="607"/>
      <point x="106" y="524" type="curve" smooth="yes"/>
    </contour>
  </outline>
</glyph>
<glyph name="circleplus" format="2">
  <advance width="572"/>
  <unicode hex="2295"/>
  <outline>
    <contour>
      <point x="287" y="-10" type="curve" smooth="yes"/>
      <point x="409.897" y="-10"/>
      <point x="512" y="90.8051"/>
      <point x="512" y="214" type="curve" smooth="yes"/>
      <point x="512" y="336.634"/>
      <point x="409.634" y="439"/>
      <point x="287" y="439" type="curve" smooth="yes"/>
      <point x="163.619" y="439"/>
      <point x="60" y="337.975"/>
      <point x="60" y="214" type="curve" smooth="yes"/>
      <point x="60" y="89.7252"/>
      <point x="163.626" y="-10"/>
    </contour>
    <contour>
      <point x="287" y="29" type="curve" smooth="yes"/>
      <point x="184.639" y="29"/>
      <point x="104" y="112.262"/>
      <point x="104" y="214" type="curve" smooth="yes"/>
      <point x="104" y="317.199"/>
      <point x="182.858" y="400"/>
      <point x="287" y="400" type="curve" smooth="yes"/>
      <point x="389.732" y="400"/>
      <point x="468" y="315.205"/>
      <point x="468" y="214" type="curve" smooth="yes"/>
      <point x="468" y="111.926"/>
      <point x="390.344" y="29"/>
    </contour>
    <contour>
      <point x="83" y="193" type="line"/>
      <point x="475" y="193" type="line"/>
      <point x="475" y="233" type="line"/>
      <point x="83" y="233" type="line"/>
    </contour>
    <contour>
      <point x="260.522" y="11" type="line"/>
      <point x="300.522" y="11" type="line"/>
      <point x="300.522" y="414" type="line"/>
      <point x="260.522" y="414" type="line"/>
    </contour>
  </outline>
</glyph>
<glyph name="uni25CC" format="2">
  <advance width="530"/>
  <unicode hex="25CC"/>
  <outline>
    <contour>
      <point x="235.134" y="412.874" type="curve" smooth="yes"/>
      <point x="235.134" y="396.209"/>
      <point x="248.594" y="382.749"/>
      <point x="265.26" y="382.749" type="curve" smooth="yes"/>
      <point x="281.925" y="382.749"/>
      <point x="295.385" y="396.209"/>
      <point x="295.385" y="412.874" type="curve" smooth="yes"/>
      <point x="295.385" y="429.54"/>
      <point x="281.925" y="443"/>
      <point x="265.26" y="443" type="curve" smooth="yes"/>
      <point x="248.594" y="443"/>
      <point x="235.134" y="429.54"/>
    </contour>
    <contour>
      <point x="408.225" y="314.165" type="curve" smooth="yes"/>
      <point x="408.225" y="297.5"/>
      <point x="421.685" y="284.039"/>
      <point x="438.351" y="284.039" type="curve" smooth="yes"/>
      <point x="455.016" y="284.039"/>
      <point x="468.476" y="297.5"/>
      <point x="468.476" y="314.165" type="curve" smooth="yes"/>
      <point x="468.476" y="330.83"/>
      <point x="455.016" y="344.29"/>
      <point x="438.351" y="344.29" type="curve" smooth="yes"/>
      <point x="421.685" y="344.29"/>
      <point x="408.225" y="330.83"/>
    </contour>
    <contour>
      <point x="429.749" y="218.5" type="curve" smooth="yes"/>
      <point x="429.749" y="201.835"/>
      <point x="443.209" y="188.374"/>
      <point x="459.874" y="188.374" type="curve" smooth="yes"/>
      <point x="476.54" y="188.374"/>
      <point x="490" y="201.835"/>
      <point x="490" y="218.5" type="curve" smooth="yes"/>
      <point x="490" y="235.165"/>
      <point x="476.54" y="248.626"/>
      <point x="459.874" y="248.626" type="curve" smooth="yes"/>
      <point x="443.209" y="248.626"/>
      <point x="429.749" y="235.165"/>
    </contour>
    <contour>
      <point x="408.225" y="125.743" type="curve" smooth="yes"/>
      <point x="408.225" y="109.077"/>
      <point x="421.685" y="95.6169"/>
      <point x="438.351" y="95.6169" type="curve" smooth="yes"/>
      <point x="455.016" y="95.6169"/>
      <point x="468.476" y="109.077"/>
      <point x="468.476" y="125.743" type="curve" smooth="yes"/>
      <point x="468.476" y="142.408"/>
      <point x="455.016" y="155.868"/>
      <point x="438.351" y="155.868" type="curve" smooth="yes"/>
      <point x="421.685" y="155.868"/>
      <point x="408.225" y="142.408"/>
    </contour>
    <contour>
      <point x="346.478" y="56.8632" type="curve" smooth="yes"/>
      <point x="346.478" y="40.1979"/>
      <point x="359.938" y="26.7376"/>
      <point x="376.604" y="26.7376" type="curve" smooth="yes"/>
      <point x="393.269" y="26.7376"/>
      <point x="406.729" y="40.1979"/>
      <point x="406.729" y="56.8632" type="curve" smooth="yes"/>
      <point x="406.729" y="73.5284"/>
      <point x="393.269" y="86.9888"/>
      <point x="376.604" y="86.9888" type="curve" smooth="yes"/>
      <point x="359.938" y="86.9888"/>
      <point x="346.478" y="73.5284"/>
    </contour>
    <contour>
      <point x="235.134" y="24.1256" type="curve" smooth="yes"/>
      <point x="235.134" y="7.46036"/>
      <point x="248.594" y="-6.00003"/>
      <point x="265.26" y="-6.00003" type="curve" smooth="yes"/>
      <point x="281.925" y="-6.00003"/>
      <point x="295.385" y="7.46036"/>
      <point x="295.385" y="24.1256" type="curve" smooth="yes"/>
      <point x="295.385" y="40.7908"/>
      <point x="281.925" y="54.2512"/>
      <point x="265.26" y="54.2512" type="curve" smooth="yes"/>
      <point x="248.594" y="54.2512"/>
      <point x="235.134" y="40.7908"/>
    </contour>
    <contour>
      <point x="127.745" y="56.8632" type="curve" smooth="yes"/>
      <point x="127.745" y="40.1979"/>
      <point x="141.205" y="26.7376"/>
      <point x="157.87" y="26.7376" type="curve" smooth="yes"/>
      <point x="174.536" y="26.7376"/>
      <point x="187.996" y="40.1979"/>
      <point x="187.996" y="56.8632" type="curve" smooth="yes"/>
      <point x="187.996" y="73.5284"/>
      <point x="174.536" y="86.9888"/>
      <point x="157.87" y="86.9888" type="curve" smooth="yes"/>
      <point x="141.205" y="86.9888"/>
      <point x="127.745" y="73.5284"/>
    </contour>
    <contour>
      <point x="61.7859" y="125.743" type="curve" smooth="yes"/>
      <point x="61.7859" y="109.077"/>
      <point x="75.2462" y="95.6169"/>
      <point x="91.9115" y="95.6169" type="curve" smooth="yes"/>
      <point x="108.577" y="95.6169"/>
      <point x="122.037" y="109.077"/>
      <point x="122.037" y="125.743" type="curve" smooth="yes"/>
      <point x="122.037" y="142.408"/>
      <point x="108.577" y="155.868"/>
      <point x="91.9115" y="155.868" type="curve" smooth="yes"/>
      <point x="75.2462" y="155.868"/>
      <point x="61.7859" y="142.408"/>
    </contour>
    <contour>
      <point x="41" y="218.5" type="curve" smooth="yes"/>
      <point x="41" y="201.835"/>
      <point x="54.4604" y="188.374"/>
      <point x="71.1256" y="188.374" type="curve" smooth="yes"/>
      <point x="87.7908" y="188.374"/>
      <point x="101.251" y="201.835"/>
      <point x="101.251" y="218.5" type="curve" smooth="yes"/>
      <point x="101.251" y="235.165"/>
      <point x="87.7908" y="248.626"/>
      <point x="71.1256" y="248.626" type="curve" smooth="yes"/>
      <point x="54.4604" y="248.626"/>
      <point x="41" y="235.165"/>
    </contour>
    <contour>
      <point x="61.7859" y="314.165" type="curve" smooth="yes"/>
      <point x="61.7859" y="297.5"/>
      <point x="75.2462" y="284.039"/>
      <point x="91.9115" y="284.039" type="curve" smooth="yes"/>
      <point x="108.577" y="284.039"/>
      <point x="122.037" y="297.5"/>
      <point x="122.037" y="314.165" type="curve" smooth="yes"/>
      <point x="122.037" y="330.83"/>
      <point x="108.577" y="344.29"/>
      <point x="91.9115" y="344.29" type="curve" smooth="yes"/>
      <point x="75.2462" y="344.29"/>
      <point x="61.7859" y="330.83"/>
    </contour>
    <contour>
      <point x="127.745" y="384.672" type="curve" smooth="yes"/>
      <point x="127.745" y="368.006"/>
      <point x="141.205" y="354.546"/>
      <point x="157.87" y="354.546" type="curve" smooth="yes"/>
      <point x="174.536" y="354.546"/>
      <point x="187.996" y="368.006"/>
      <point x="187.996" y="384.672" type="curve" smooth="yes"/>
      <point x="187.996" y="401.337"/>
      <point x="174.536" y="414.797"/>
      <point x="157.87" y="414.797" type="curve" smooth="yes"/>
      <point x="141.205" y="414.797"/>
      <point x="127.745" y="401.337"/>
    </contour>
    <contour>
      <point x="346.478" y="384.672" type="curve" smooth="yes"/>
      <point x="346.478" y="368.006"/>
      <point x="359.938" y="354.546"/>
      <point x="376.604" y="354.546" type="curve" smooth="yes"/>
      <point x="393.269" y="354.546"/>
      <point x="406.729" y="368.006"/>
      <point x="406.729" y="384.672" type="curve" smooth="yes"/>
      <point x="406.729" y="401.337"/>
      <point x="393.269" y="414.797"/>
      <point x="376.604" y="414.797" type="curve" smooth="yes"/>
      <point x="359.938" y="414.797"/>
      <point x="346.478" y="401.337"/>
    </contour>
  </outline>
</glyph>
<glyph name="uni2C66" format="2">
  <advance width="338"/>
  <unicode hex="2C66"/>
  <outline>
    <contour>
      <point x="43" y="429" type="line" smooth="yes"/>
      <point x="29" y="429"/>
      <point x="25" y="417"/>
      <point x="25" y="409" type="curve" smooth="yes"/>
      <point x="25" y="396" type="line" smooth="yes"/>
      <point x="25" y="391"/>
      <point x="26" y="390"/>
      <point x="30" y="390" type="curve" smooth="yes"/>
      <point x="89" y="390" type="line"/>
      <point x="89" y="307"/>
      <point x="89" y="225"/>
      <point x="89" y="142" type="curve"/>
      <point x="-27" y="-62" type="line"/>
      <point x="14" y="-62" type="line"/>
      <point x="90" y="71" type="line"/>
      <point x="92" y="47"/>
      <point x="98" y="29"/>
      <point x="108" y="16" type="curve"/>
      <point x="121" y="-2"/>
      <point x="142" y="-10"/>
      <point x="166" y="-10" type="curve" smooth="yes"/>
      <point x="172" y="-10"/>
      <point x="177.986" y="-9.8954"/>
      <point x="185" y="-9" type="curve" smooth="yes"/>
      <point x="224.987" y="-3.89541"/>
      <point x="267" y="18"/>
      <point x="301" y="56" type="curve"/>
      <point x="299" y="66"/>
      <point x="293" y="72"/>
      <point x="283" y="73" type="curve"/>
      <point x="271" y="64"/>
      <point x="259" y="58"/>
      <point x="247" y="53" type="curve"/>
      <point x="231" y="47"/>
      <point x="215" y="45"/>
      <point x="201" y="45" type="curve" smooth="yes"/>
      <point x="185" y="45"/>
      <point x="176" y="56"/>
      <point x="172" y="78" type="curve" smooth="yes"/>
      <point x="169" y="93"/>
      <point x="168" y="112"/>
      <point x="168" y="137" type="curve" smooth="yes"/>
      <point x="168" y="161"/>
      <point x="168" y="185"/>
      <point x="168" y="209" type="curve"/>
      <point x="271" y="390" type="line"/>
      <point x="272" y="390" type="line"/>
      <point x="272" y="390" type="line"/>
      <point x="282" y="390"/>
      <point x="296" y="394"/>
      <point x="296" y="403" type="curve" smooth="yes"/>
      <point x="296" y="413" type="line"/>
      <point x="296" y="413"/>
      <point x="296" y="413"/>
      <point x="296" y="413" type="curve"/>
      <point x="296" y="423" type="line" smooth="yes"/>
      <point x="296" y="426"/>
      <point x="295" y="427"/>
      <point x="293" y="428" type="curve"/>
      <point x="320" y="476" type="line"/>
      <point x="279" y="476" type="line"/>
      <point x="252" y="429" type="line"/>
      <point x="168" y="429" type="line"/>
      <point x="168" y="468" type="line" smooth="yes"/>
      <point x="168" y="533"/>
      <point x="172" y="573"/>
      <point x="172" y="573" type="curve"/>
      <point x="172" y="579"/>
      <point x="169" y="582"/>
      <point x="164" y="582" type="curve" smooth="yes"/>
      <point x="160" y="582"/>
      <point x="151" y="578"/>
      <point x="142" y="573" type="curve" smooth="yes"/>
      <point x="131" y="567"/>
      <point x="121" y="562"/>
      <point x="108" y="559" type="curve"/>
      <point x="100" y="556"/>
      <point x="93" y="554"/>
      <point x="89" y="551" type="curve"/>
      <point x="87" y="549"/>
      <point x="86" y="547"/>
      <point x="86" y="545" type="curve" smooth="yes"/>
      <point x="86" y="533"/>
      <point x="89" y="540"/>
      <point x="89" y="429" type="curve"/>
    </contour>
    <contour>
      <point x="168" y="281" type="line"/>
      <point x="168" y="390" type="line"/>
      <point x="230" y="390" type="line"/>
    </contour>
  </outline>
</glyph>
<glyph name="_corner._UC_lb" format="2">
  <advance width="212"/>
  <anchor x="132" y="0" name="origin"/>
  <anchor x="132" y="120" name="left"/>
  <anchor x="172" y="0" name="right"/>
  <outline>
    <contour>
      <point x="132" y="120" type="move"/>
      <point x="132" y="45"/>
      <point x="123" y="34"/>
      <point x="45" y="31" type="curve"/>
      <point x="38.408" y="24.9597"/>
      <point x="38.408" y="3.95968"/>
      <point x="45" y="-2" type="curve"/>
      <point x="112" y="-1"/>
      <point x="146" y="0"/>
      <point x="172" y="0" type="curve"/>
    </contour>
  </outline>
  <guideline angle="90" x="132" y="0"/>
  <guideline angle="90" x="172" y="0"/>
  <guideline angle="0" x="0" y="120"/>
  <guideline angle="90" x="40" y="0"/>
  <guideline angle="0" x="0" y="31"/>
</glyph>
<glyph name="_corner._UC_rb" format="2">
  <advance width="212"/>
  <anchor x="80" y="0" name="origin"/>
  <anchor x="40" y="0" name="left"/>
  <anchor x="80" y="120" name="right"/>
  <outline>
    <contour>
      <point x="40" y="0" type="move"/>
      <point x="66" y="0"/>
      <point x="101" y="-1"/>
      <point x="167" y="-2" type="curve"/>
      <point x="173" y="4"/>
      <point x="174" y="25"/>
      <point x="167" y="31" type="curve"/>
      <point x="89" y="34"/>
      <point x="80" y="45"/>
      <point x="80" y="120" type="curve"/>
    </contour>
  </outline>
  <guideline angle="90" x="80" y="0"/>
  <guideline angle="90" x="172" y="0"/>
  <guideline angle="0" x="0" y="31"/>
  <guideline angle="0" x="0" y="120"/>
  <guideline angle="90" x="40" y="0"/>
</glyph>
<glyph name="i.sc" format="2">
  <advance width="262"/>
  <outline>
    <contour>
      <point x="19" y="-2" type="curve"/>
      <point x="56" y="-1"/>
      <point x="97" y="0"/>
      <point x="131" y="0" type="curve" smooth="yes"/>
      <point x="163" y="0"/>
      <point x="208" y="-1"/>
      <point x="243" y="-2" type="curve"/>
      <point x="249" y="4"/>
      <point x="249" y="25"/>
      <point x="243" y="31" type="curve"/>
      <point x="182" y="35"/>
      <point x="171" y="39"/>
      <point x="171" y="122" type="curve"/>
      <point x="91" y="122" type="line"/>
      <point x="91" y="39"/>
      <point x="80" y="36"/>
      <point x="19" y="31" type="curve"/>
      <point x="13" y="25"/>
      <point x="13" y="4"/>
    </contour>
    <contour>
      <point x="91" y="338" type="curve"/>
      <point x="171" y="338" type="line"/>
      <point x="171" y="421"/>
      <point x="182" y="424"/>
      <point x="243" y="429" type="curve"/>
      <point x="249" y="435"/>
      <point x="249" y="456"/>
      <point x="243" y="462" type="curve"/>
      <point x="205" y="461"/>
      <point x="162" y="460"/>
      <point x="131" y="460" type="curve" smooth="yes"/>
      <point x="101" y="460"/>
      <point x="58" y="461"/>
      <point x="19" y="462" type="curve"/>
      <point x="13" y="456"/>
      <point x="13" y="435"/>
      <point x="19" y="429" type="curve"/>
      <point x="80" y="425"/>
      <point x="91" y="421"/>
    </contour>
    <contour>
      <point x="91" y="122" type="line"/>
      <point x="171" y="122" type="line"/>
      <point x="171" y="338" type="line"/>
      <point x="91" y="338" type="line"/>
    </contour>
  </outline>
</glyph>
<glyph name="u.cv01" format="2">
  <advance width="531"/>
  <anchor x="262" y="500" name="top"/>
  <anchor x="422" y="10" name="b.ogonek"/>
  <anchor x="281" y="-60" name="b.minus-60"/>
  <anchor x="403" y="392" name="t.horn"/>
  <outline>
    <contour>
      <point x="217" y="-10" type="curve" smooth="yes"/>
      <point x="259" y="-10"/>
      <point x="328" y="30"/>
      <point x="379" y="75" type="curve"/>
      <point x="375" y="109" type="line"/>
      <point x="339" y="73"/>
      <point x="275" y="37"/>
      <point x="247" y="37" type="curve" smooth="yes"/>
      <point x="217" y="37"/>
      <point x="167" y="51"/>
      <point x="167" y="140" type="curve" smooth="yes"/>
      <point x="167" y="319.5" type="line" name=".sk1"/>
      <point x="167" y="370.625"/>
      <point x="168.065" y="401.232"/>
      <point x="171" y="434.5" type="curve"/>
      <point x="171" y="438.654"/>
      <point x="165.714" y="441.5"/>
      <point x="158" y="441.5" type="curve"/>
      <point x="125.618" y="428.778"/>
      <point x="64.9207" y="416.023"/>
      <point x="20" y="412.5" type="curve"/>
      <point x="18.3714" y="406.8"/>
      <point x="19.4091" y="392.273"/>
      <point x="22" y="384.5" type="curve"/>
      <point x="79" y="379.5"/>
      <point x="87" y="371.5"/>
      <point x="87" y="319.5" type="curve"/>
      <point x="87" y="126" type="line" smooth="yes"/>
      <point x="87" y="57"/>
      <point x="118" y="-10"/>
    </contour>
    <contour>
      <point x="375" y="0" type="curve"/>
      <point x="376" y="-7"/>
      <point x="386" y="-10"/>
      <point x="397" y="-10" type="curve"/>
      <point x="419" y="8"/>
      <point x="455" y="23"/>
      <point x="516" y="30" type="curve"/>
      <point x="522" y="36"/>
      <point x="522" y="51"/>
      <point x="516" y="57" type="curve"/>
      <point x="452" y="62"/>
      <point x="443" y="81"/>
      <point x="443" y="130" type="curve" smooth="yes"/>
      <point x="443" y="319.5" type="line" name=".sk2"/>
      <point x="443" y="370.625"/>
      <point x="444.065" y="401.232"/>
      <point x="447" y="434.5" type="curve"/>
      <point x="447" y="438.654"/>
      <point x="441.714" y="441.5"/>
      <point x="434" y="441.5" type="curve"/>
      <point x="401.618" y="428.778"/>
      <point x="340.921" y="416.023"/>
      <point x="296" y="412.5" type="curve"/>
      <point x="294.371" y="406.8"/>
      <point x="295.409" y="392.273"/>
      <point x="298" y="384.5" type="curve"/>
      <point x="355" y="379.5"/>
      <point x="363" y="371.5"/>
      <point x="363" y="319.5" type="curve"/>
      <point x="363" y="124" type="line" smooth="yes"/>
      <point x="363" y="78"/>
      <point x="366" y="44"/>
    </contour>
  </outline>
  <guideline angle="0" x="0" y="442"/>
</glyph>
<glyph name="u.inferior" format="2">
  <advance width="325"/>
  <outline>
    <contour>
      <point x="270" y="-28" type="curve" smooth="yes"/>
      <point x="270" y="73" type="line"/>
      <point x="270" y="80" type="line" smooth="yes"/>
      <point x="270" y="93"/>
      <point x="271" y="119"/>
      <point x="271" y="136" type="curve"/>
      <point x="272" y="145"/>
      <point x="272" y="152"/>
      <point x="272" y="152" type="curve"/>
      <point x="272" y="154"/>
      <point x="271" y="156"/>
      <point x="268" y="156" type="curve"/>
      <point x="265" y="155"/>
      <point x="255" y="154"/>
      <point x="246" y="154" type="curve" smooth="yes"/>
      <point x="226" y="154"/>
      <point x="207" y="155"/>
      <point x="184" y="156" type="curve"/>
      <point x="182" y="154"/>
      <point x="181" y="149"/>
      <point x="181" y="145" type="curve" smooth="yes"/>
      <point x="181" y="140"/>
      <point x="182" y="135"/>
      <point x="184" y="133" type="curve"/>
      <point x="214" y="131"/>
      <point x="222" y="122"/>
      <point x="222" y="76" type="curve" smooth="yes"/>
      <point x="222" y="-41" type="line"/>
      <point x="203" y="-63"/>
      <point x="180" y="-83"/>
      <point x="159" y="-83" type="curve" smooth="yes"/>
      <point x="131" y="-83"/>
      <point x="112" y="-69"/>
      <point x="109" y="-26" type="curve"/>
      <point x="109" y="-23"/>
      <point x="109" y="-20"/>
      <point x="109" y="-16" type="curve" smooth="yes"/>
      <point x="109" y="73" type="line"/>
      <point x="109" y="80" type="line" smooth="yes"/>
      <point x="109" y="93"/>
      <point x="110" y="119"/>
      <point x="110" y="136" type="curve"/>
      <point x="111" y="145"/>
      <point x="111" y="152"/>
      <point x="111" y="152" type="curve"/>
      <point x="111" y="154"/>
      <point x="110" y="156"/>
      <point x="107" y="156" type="curve"/>
      <point x="105" y="155"/>
      <point x="99" y="155"/>
      <point x="92" y="154" type="curve"/>
      <point x="90" y="154"/>
      <point x="87" y="154"/>
      <point x="85" y="154" type="curve" smooth="yes"/>
      <point x="65" y="154"/>
      <point x="46" y="155"/>
      <point x="23" y="156" type="curve"/>
      <point x="21" y="154"/>
      <point x="20" y="149"/>
      <point x="20" y="145" type="curve" smooth="yes"/>
      <point x="20" y="140"/>
      <point x="21" y="135"/>
      <point x="23" y="133" type="curve"/>
      <point x="53" y="131"/>
      <point x="61" y="122"/>
      <point x="61" y="76" type="curve" smooth="yes"/>
      <point x="61" y="-19" type="line" smooth="yes"/>
      <point x="61" y="-21"/>
      <point x="61" y="-24"/>
      <point x="61" y="-26" type="curve" smooth="yes"/>
      <point x="61" y="-86"/>
      <point x="84" y="-113"/>
      <point x="122" y="-117" type="curve"/>
      <point x="126" y="-118"/>
      <point x="131" y="-118"/>
      <point x="135" y="-118" type="curve" smooth="yes"/>
      <point x="172" y="-118"/>
      <point x="204" y="-91"/>
      <point x="217" y="-73" type="curve"/>
      <point x="219" y="-71"/>
      <point x="220" y="-70"/>
      <point x="221" y="-71" type="curve"/>
      <point x="222" y="-71"/>
      <point x="222" y="-73"/>
      <point x="222" y="-74" type="curve" smooth="yes"/>
      <point x="222" y="-92"/>
      <point x="224" y="-105"/>
      <point x="227" y="-112" type="curve"/>
      <point x="228" y="-115"/>
      <point x="229" y="-118"/>
      <point x="234" y="-118" type="curve"/>
      <point x="251" y="-110"/>
      <point x="271" y="-104"/>
      <point x="314" y="-98" type="curve"/>
      <point x="315" y="-96"/>
      <point x="314" y="-92"/>
      <point x="314" y="-87" type="curve"/>
      <point x="313" y="-83"/>
      <point x="313" y="-78"/>
      <point x="312" y="-76" type="curve"/>
      <point x="279" y="-73"/>
      <point x="270" y="-68"/>
    </contour>
  </outline>
</glyph>
<glyph name="uni03030301" format="2">
  <anchor x="-160" y="500" name="_top"/>
  <outline>
    <contour>
      <point x="-103.691" y="543.948" type="curve" smooth="yes"/>
      <point x="-146.234" y="543.948"/>
      <point x="-163.591" y="597.897"/>
      <point x="-205.388" y="597.897" type="curve" smooth="yes"/>
      <point x="-240.655" y="597.897"/>
      <point x="-259.518" y="568.198"/>
      <point x="-271" y="508.14" type="curve"/>
      <point x="-266.079" y="502.033"/>
      <point x="-257.878" y="501.015"/>
      <point x="-248.856" y="503.051" type="curve"/>
      <point x="-240.655" y="536.642"/>
      <point x="-232.453" y="541.911"/>
      <point x="-211.129" y="541.911" type="curve" smooth="yes"/>
      <point x="-171.398" y="541.911"/>
      <point x="-144.319" y="489.997"/>
      <point x="-114.353" y="489.997" type="curve" smooth="yes"/>
      <point x="-76.6259" y="489.997"/>
      <point x="-52.8417" y="519.696"/>
      <point x="-43" y="580.771" type="curve"/>
      <point x="-47.9209" y="584.843"/>
      <point x="-56.1223" y="587.897"/>
      <point x="-65.1439" y="586.879" type="curve"/>
      <point x="-76.6259" y="544.126"/>
      <point x="-85.6475" y="543.948"/>
    </contour>
    <contour>
      <point x="-118.717" y="763.241" type="curve"/>
      <point x="-178.717" y="656.241" type="line" smooth="yes"/>
      <point x="-185.009" y="645.022"/>
      <point x="-187.717" y="638.798"/>
      <point x="-187.717" y="631.241" type="curve" smooth="yes"/>
      <point x="-187.717" y="625.241"/>
      <point x="-182.717" y="619.241"/>
      <point x="-176.717" y="619.241" type="curve" smooth="yes"/>
      <point x="-170.717" y="619.241"/>
      <point x="-164.826" y="623.343"/>
      <point x="-152.717" y="636.241" type="curve" smooth="yes"/>
      <point x="-60.7175" y="734.241" type="line"/>
      <point x="-62.7175" y="744.241" type="line"/>
      <point x="-81.7175" y="764.241"/>
      <point x="-101.717" y="765.241"/>
      <point x="-106.717" y="765.241" type="curve" smooth="yes"/>
      <point x="-110.717" y="765.241"/>
      <point x="-115.717" y="764.241"/>
    </contour>
  </outline>
</glyph>
<glyph name="uni03030308" format="2">
  <anchor x="-160" y="500" name="_top"/>
  <outline>
    <contour>
      <point x="-103.691" y="543.948" type="curve" smooth="yes"/>
      <point x="-146.234" y="543.948"/>
      <point x="-163.591" y="597.897"/>
      <point x="-205.388" y="597.897" type="curve" smooth="yes"/>
      <point x="-240.655" y="597.897"/>
      <point x="-259.518" y="568.198"/>
      <point x="-271" y="508.14" type="curve"/>
      <point x="-266.079" y="502.033"/>
      <point x="-257.878" y="501.015"/>
      <point x="-248.856" y="503.051" type="curve"/>
      <point x="-240.655" y="536.642"/>
      <point x="-232.453" y="541.911"/>
      <point x="-211.129" y="541.911" type="curve" smooth="yes"/>
      <point x="-171.398" y="541.911"/>
      <point x="-144.319" y="489.997"/>
      <point x="-114.353" y="489.997" type="curve" smooth="yes"/>
      <point x="-76.6259" y="489.997"/>
      <point x="-52.8417" y="519.696"/>
      <point x="-43" y="580.771" type="curve"/>
      <point x="-47.9209" y="584.843"/>
      <point x="-56.1223" y="587.897"/>
      <point x="-65.1439" y="586.879" type="curve"/>
      <point x="-76.6259" y="544.126"/>
      <point x="-85.6475" y="543.948"/>
    </contour>
    <contour>
      <point x="-288.937" y="677.052" type="curve" smooth="yes"/>
      <point x="-288.937" y="651.052"/>
      <point x="-267.937" y="630.052"/>
      <point x="-241.937" y="630.052" type="curve" smooth="yes"/>
      <point x="-215.937" y="630.052"/>
      <point x="-194.937" y="651.052"/>
      <point x="-194.937" y="677.052" type="curve" smooth="yes"/>
      <point x="-194.937" y="703.052"/>
      <point x="-215.937" y="725.052"/>
      <point x="-241.937" y="725.052" type="curve" smooth="yes"/>
      <point x="-267.937" y="725.052"/>
      <point x="-288.937" y="703.052"/>
    </contour>
    <contour>
      <point x="-119.937" y="677.052" type="curve" smooth="yes"/>
      <point x="-119.937" y="651.052"/>
      <point x="-98.9374" y="630.052"/>
      <point x="-72.9374" y="630.052" type="curve" smooth="yes"/>
      <point x="-46.9374" y="630.052"/>
      <point x="-25.9374" y="651.052"/>
      <point x="-25.9374" y="677.052" type="curve" smooth="yes"/>
      <point x="-25.9374" y="703.052"/>
      <point x="-46.9374" y="725.052"/>
      <point x="-72.9374" y="725.052" type="curve" smooth="yes"/>
      <point x="-98.9374" y="725.052"/>
      <point x="-119.937" y="703.052"/>
    </contour>
  </outline>
</glyph>
<glyph name="uni03060300" format="2">
  <anchor x="-160" y="500" name="_top"/>
  <outline>
    <component base="breve" xOffset="-316"/>
    <contour>
      <point x="-177" y="734" type="line"/>
      <point x="-180" y="735"/>
      <point x="-184" y="736"/>
      <point x="-188" y="736" type="curve" smooth="yes"/>
      <point x="-211" y="736"/>
      <point x="-227" y="725"/>
      <point x="-233" y="718" type="curve"/>
      <point x="-235" y="709" type="line"/>
      <point x="-165" y="639" type="line" smooth="yes"/>
      <point x="-152" y="626"/>
      <point x="-147" y="623"/>
      <point x="-142" y="623" type="curve" smooth="yes"/>
      <point x="-138" y="623"/>
      <point x="-134" y="627"/>
      <point x="-134" y="631" type="curve" smooth="yes"/>
      <point x="-134" y="638"/>
      <point x="-135" y="644"/>
      <point x="-138" y="651" type="curve"/>
    </contour>
  </outline>
</glyph>
<glyph name="uni03070301" format="2">
  <anchor x="-212" y="500" name="_top"/>
  <outline>
    <contour>
      <point x="-351" y="567" type="curve" smooth="yes"/>
      <point x="-351" y="541"/>
      <point x="-330" y="520"/>
      <point x="-304" y="520" type="curve" smooth="yes"/>
      <point x="-278" y="520"/>
      <point x="-257" y="541"/>
      <point x="-257" y="567" type="curve" smooth="yes"/>
      <point x="-257" y="593"/>
      <point x="-278" y="615"/>
      <point x="-304" y="615" type="curve" smooth="yes"/>
      <point x="-330" y="615"/>
      <point x="-351" y="593"/>
    </contour>
    <contour>
      <point x="-157.264" y="650" type="curve"/>
      <point x="-233.264" y="531" type="line" smooth="yes"/>
      <point x="-241.48" y="518.135"/>
      <point x="-244.264" y="514"/>
      <point x="-244.264" y="503" type="curve" smooth="yes"/>
      <point x="-244.264" y="496"/>
      <point x="-237.264" y="490"/>
      <point x="-230.264" y="490" type="curve" smooth="yes"/>
      <point x="-223.264" y="490"/>
      <point x="-215.661" y="494.407"/>
      <point x="-200.264" y="509" type="curve" smooth="yes"/>
      <point x="-85.2644" y="618" type="line"/>
      <point x="-88.2644" y="629" type="line"/>
      <point x="-111.264" y="651"/>
      <point x="-137.264" y="652"/>
      <point x="-143.264" y="652" type="curve" smooth="yes"/>
      <point x="-148.264" y="652"/>
      <point x="-154.264" y="651"/>
    </contour>
  </outline>
</glyph>
<glyph name="uni030C0307" format="2">
  <anchor x="-213" y="500" name="_top"/>
  <outline>
    <contour>
      <point x="-260" y="657.283" type="curve" smooth="yes"/>
      <point x="-260" y="631.283"/>
      <point x="-239" y="610.283"/>
      <point x="-213" y="610.283" type="curve" smooth="yes"/>
      <point x="-187" y="610.283"/>
      <point x="-166" y="631.283"/>
      <point x="-166" y="657.283" type="curve" smooth="yes"/>
      <point x="-166" y="683.283"/>
      <point x="-187" y="705.283"/>
      <point x="-213" y="705.283" type="curve" smooth="yes"/>
      <point x="-239" y="705.283"/>
      <point x="-260" y="683.283"/>
    </contour>
    <contour>
      <point x="-237.71" y="500.421" type="curve"/>
      <point x="-189.71" y="500.421" type="line"/>
      <point x="-160.71" y="546.421"/>
      <point x="-123.71" y="591.421"/>
      <point x="-88.7104" y="630.421" type="curve"/>
      <point x="-107.71" y="643.421" type="line"/>
      <point x="-144.71" y="616.421"/>
      <point x="-176.71" y="591.421"/>
      <point x="-213.71" y="553.421" type="curve"/>
      <point x="-247.71" y="589.421"/>
      <point x="-280.71" y="616.421"/>
      <point x="-319.71" y="643.421" type="curve"/>
      <point x="-338.71" y="630.421" type="line"/>
      <point x="-303.71" y="592.421"/>
      <point x="-266.71" y="547.421"/>
    </contour>
  </outline>
</glyph>
<glyph name="uni044C.loclBGR" format="2">
  <advance width="501"/>
  <anchor x="176" y="500" name="top"/>
  <outline>
    <contour>
      <point x="272" y="-10" type="curve" smooth="yes"/>
      <point x="385" y="-10"/>
      <point x="461" y="54"/>
      <point x="461" y="164" type="curve" smooth="yes"/>
      <point x="461" y="252"/>
      <point x="388" y="316"/>
      <point x="289" y="316" type="curve" smooth="yes"/>
      <point x="254" y="316"/>
      <point x="218" y="308"/>
      <point x="186" y="292" type="curve"/>
      <point x="186" y="300" type="line"/>
      <point x="107" y="300" type="line"/>
      <point x="107" y="122" type="line" smooth="yes"/>
      <point x="107" y="34"/>
      <point x="188" y="-10"/>
    </contour>
    <contour>
      <point x="186" y="101" type="curve" smooth="yes"/>
      <point x="186" y="255" type="line"/>
      <point x="215" y="274"/>
      <point x="256" y="283"/>
      <point x="284" y="283" type="curve" smooth="yes"/>
      <point x="336" y="283"/>
      <point x="375" y="228"/>
      <point x="375" y="154" type="curve" smooth="yes"/>
      <point x="375" y="60"/>
      <point x="325" y="24"/>
      <point x="282" y="24" type="curve" smooth="yes"/>
      <point x="218" y="24"/>
      <point x="186" y="67"/>
    </contour>
    <contour>
      <point x="186" y="300" type="line"/>
      <point x="186" y="321" type="line" smooth="yes"/>
      <point x="186" y="371"/>
      <point x="187" y="401"/>
      <point x="190" y="435" type="curve"/>
      <point x="190" y="439"/>
      <point x="185" y="442"/>
      <point x="177" y="442" type="curve"/>
      <point x="149" y="431"/>
      <point x="91" y="417"/>
      <point x="40" y="413" type="curve"/>
      <point x="38" y="406"/>
      <point x="40" y="391"/>
      <point x="42" y="385" type="curve"/>
      <point x="97" y="380"/>
      <point x="107" y="374"/>
      <point x="107" y="317" type="curve" smooth="yes"/>
      <point x="107" y="300" type="line"/>
    </contour>
  </outline>
</glyph>
